<svg version="1.1" id="Calque_1" xmlns="http://www.w3.org/2000/svg" xmlns:xlink="http://www.w3.org/1999/xlink" x="0px" y="0px" viewBox="0 0 1417.3 283.5" style="enable-background:new 0 0 1417.3 283.5;" xml:space="preserve">
<style type="text/css">
	.st0{fill:#512037;}
</style>
<g>
	<path class="st0" d="M993.1,162.1c-0.2-0.4-0.4-0.9-0.9-1.1c-1.6-0.8-2.9-2-4.4-3c-0.7-0.5-1.4-1-2.2-1.2c-1.5-0.5-2.9-1.3-3.8-2.7
		c-0.4-0.6-1-1-1.6-1.4c-0.9-0.5-1.7-1.1-2.6-1.7c-0.2-0.1-0.3-0.3-0.5-0.3c-0.2-0.1-0.5-0.1-0.7,0c-0.1,0.1-0.2,0.5-0.1,0.6
		c0.4,0.6,0.4,1.3,0.5,1.9c0.2,2.9,0.3,5.7,0.1,8.6c-0.1,0.8-0.1,1.7,0,2.5c0.1,1.2-0.1,2.3-0.6,3.4c-0.3,0.5-0.3,0.9-0.2,1.4
		c0.3,1.3,0.6,2.6,0.8,4c0.1,0.5,0.2,1.1,0,1.4c-0.8,1.5-0.9,3-0.7,4.6c0.1,0.7,0,1.3-0.4,1.9c-0.3,0.5-0.5,1,0.1,1.5
		c0.4,0.3,0.5,0.7,0.5,1.1c0,0.3,0,0.6,0,0.9c-0.2,3.5-0.1,7,0,10.5c0,1.7,0,3.3-0.5,5c-0.5,0.5-1.5,0.6-2,1.4
		c-0.1,0.2-0.5,0.3-0.8,0.3c-0.3,0.1-0.6,0-0.9,0c-2.9-0.2-5.9,0-8.8,0.2c-1.4,0.1-2.8,0-4.2,0c-2.5,0-5.5-0.5-7.9-1.1
		c-0.6-0.2-1.3-0.1-2-0.2c-0.4,0-0.8,0.1-1.1,0c-1.1-0.4-2.2-0.5-3.4-0.5c-1,0-1.8-1.1-1.5-2c0.1-0.6,0.2-1,0-1.6
		c-0.2-0.5-0.3-1,0-1.6c0.2-0.5-0.2-1.1-0.2-1.6c0-2.5-0.1-5,0-7.5c0-0.7,0.1-1.5,0.2-2.2c0.6-3.9,0.6-7.9,0.7-11.9
		c0.1-2.1,0-4.3,0-6.4c0-1.1-0.3-2.2-0.3-3.3c-0.1-2.1-0.1-4.3-0.1-6.4c0-3.2,0-6.3,0.1-9.5c0-2.1,0-4.2,0-6.3
		c0-0.8,0.1-1.6,0.1-2.4c0.2-3,0.2-6.1,0.2-9.1c0-0.5,0-1.1,0.1-1.6c0.3-2,0.1-3.9,0-5.8c-0.3-3.6-0.8-7.2-0.6-10.8
		c0.1-1.5-0.1-2.9-0.1-4.4c0-1.6,0-3.3,0.1-4.9c0-0.6-0.1-1.2-0.1-1.8c0-1-0.1-2.1,0.2-3.1c0.1-0.2,0.1-0.4,0.1-0.5
		c-0.3-2.8,0.6-5.5,0.6-8.2c0-1.2,0.3-2.4,0.6-3.6c0.2-0.9,0.9-1.3,1.8-0.9c0.6,0.2,1.1,0.5,1.6,0.9c1.6,1.3,3.2,2.5,4.5,4.1
		c0.3,0.4,0.8,0.8,1.2,1.1c3.1,1.8,5.7,4.2,8.5,6.3c1,0.7,1.9,1.6,2.7,2.5c0.5,0.5,0.9,1.1,1.7,1.3c0.4,0.1,0.8,0.4,1.1,0.7
		c2.4,2.3,5.3,3.9,7.4,6.5c0.5,0.6,1.1,0.9,1.7,1.4c0.7,0.5,1.3,1.1,2,1.6c0.9,0.7,1.8,1.3,2.6,2c1.2,1,2.5,1.9,3.6,3.1
		c2,2.1,4.3,3.7,6.7,5.4c1.3,0.9,2.8,1.8,4.1,2.7c0.6,0.4,1.2,0.9,1.6,1.5c0.2,0.3,0.4,0.6,0.7,0.8c2.3,1.7,4.6,3.4,7,5.2
		c0.3-0.2,0.6-0.4,0.9-0.7c1.1-1,2.2-1.9,3.6-2.5c0.4-0.2,0.8-0.5,1.2-0.8c1.6-1.4,3.1-3,4.7-4.3c1.5-1.2,2.8-2.5,4.6-3.3
		c0.8-0.4,1.4-1.3,2.1-2c2-2,4.2-3.9,6.8-5.2c0.6-0.3,1.2-0.8,1.7-1.3c1.6-1.5,3.1-3.1,4.8-4.6c1.2-1.1,2.6-2,3.9-3
		c2.6-2.1,5.2-4,7.7-6.2c2.7-2.3,5.6-4.4,8.3-6.6c1.2-1,2.5-1.9,3.5-3.2c1.2-1.5,2.7-2.8,4-4.2c0.8,0.1,1.5,0.2,2.4,0.4
		c-0.1,1,0.1,2-0.1,3.1c-0.1,0.5-0.1,1.1-0.1,1.6c0.2,2.1,0.2,4.1,0.1,6.2c-0.1,2.9,0,5.7,0.1,8.6c0,2.4,0,4.9-0.2,7.3
		c-0.2,2.3-0.4,4.6-0.1,7c0.1,0.6,0.1,1.2,0,1.8c-0.1,2.2-0.1,4.4,0,6.6c0.1,2.6,0.1,5.3-0.3,7.9c-0.2,1-0.2,2,0.2,2.9
		c0.4,1.1,0.4,2.2,0.4,3.3c0,2.5-0.1,5-0.6,7.5c-0.1,0.7,0,1.3-0.1,2c0,0.7,0,1.3-0.1,2c-0.1,0.8-0.4,1.5,0.2,2.3
		c0.2,0.2,0.1,0.7,0,1.1c-0.3,1.6-0.3,3.3-0.1,4.9c0.3,2.6,0.2,5.2,0.1,7.9c0,2.3,0,4.6,0.1,6.9c0.1,3.1,0.3,6.2,0.5,9.3
		c0.1,1.6,0.3,3.3,0.3,4.9c0.1,1.7,0,3.4,0,5.1c0,1,0,2,0,2.9c0,0.7,0,1.5-0.5,2.1c-0.2,0.2-0.1,0.6-0.1,0.9
		c-0.1,1.5-0.7,2.2-2.2,2.4c-0.3,0-0.6,0-0.9,0.2c-0.7,0.3-1.3,0.2-2,0.2c-0.9-0.1-1.8-0.1-2.7-0.1c-0.9,0-1.8,0.1-2.7-0.1
		c-0.4-0.1-0.7-0.1-1.1-0.1c-2.3,0.2-4.6,0.3-6.9,0.6c-1.5,0.2-2.9,0.1-4.4,0.1c-0.2,0-0.5,0-0.7-0.1c-1.1-0.4-2.3-0.4-3.4-0.2
		c-0.5,0.1-1,0-1.4-0.1c-0.8-0.1-1.5-0.3-2.3,0.1c-0.7,0.3-1.1-0.2-1.6-0.7c0.1-1.8-0.2-3.6,0-5.5c0.1-0.7,0-1.3-0.1-2
		c-0.4-2.3-0.1-4.6-0.3-7c-0.2-3.2,0-6.4,0.1-9.5c0-0.6,0-1.2,0-1.8c-0.2-2.3,0-4.5,0-6.7c0.1-2.3,0-4.6,0-6.9c0-0.2,0-0.5,0.1-0.7
		c0.4-1.1,0.2-2.2-0.2-3.2c-0.2-0.5-0.2-0.9-0.1-1.4c0.2-1.6,0.4-3.2,0.6-4.9c-0.3-0.5-0.8-0.6-1.3-0.4c-0.3,0.1-0.6,0.4-0.9,0.6
		c-2.8,2.3-5.6,4.7-8.4,7.1c-0.5,0.4-1.1,0.8-1.6,1.2c-1.3,0.9-2.6,1.8-3.9,2.7c-0.1-0.2-0.1-0.3-0.2-0.5c0,0-0.3,0.1-0.4,0.1
		c0,0.1,0.1,0.2,0.1,0.3c0.2,0,0.3,0,0.5,0c-0.8,0.6-1.4,1.3-2.4,1.6c-0.3,0.1-0.5,0.3-0.7,0.5c-0.6,0.6-1.1,1.3-2.1,1.3
		c-0.2,0-0.5,0.3-0.7,0.5c-0.7,0.6-1.5,1.3-2.2,2c-0.6,0.6-1.3,1.1-2.2,1.2c-0.7,0.1-1.2,0.5-1.6,1.2c-0.7-0.3-1.4-0.6-1.9-1
		c-1-0.9-2.2-1.5-3.4-2.2c-1-0.5-1.8-1.2-2.7-1.8c-0.4-0.3-0.7-0.6-1.2-0.9c-0.8-0.5-1.5-1-1.9-1.9
		C994,162.1,993.6,161.8,993.1,162.1C993.1,162.1,993.1,162.1,993.1,162.1z M959.4,120.2c0-0.1,0-0.3,0-0.4c0,0-0.1,0.1-0.1,0.1
		C959.3,120,959.4,120.1,959.4,120.2c0.1,0.3,0.2,0.7,0.7,0.7c0,0.1,0,0.2,0,0.2c0,0,0-0.1,0.1-0.2
		C959.8,120.7,959.6,120.5,959.4,120.2z M1035.6,142.9c-0.1,0-0.1-0.1-0.2-0.1c-0.1,0.1-0.2,0.3-0.3,0.4c0,0,0.1,0.1,0.1,0.1
		c0.1-0.1,0.2-0.2,0.3-0.3C1035.6,143,1035.6,142.9,1035.6,142.9c0-0.1,0.1-0.1,0.2-0.2c-0.1,0-0.1-0.1-0.2-0.1
		C1035.6,142.7,1035.6,142.8,1035.6,142.9z M1025.5,125.8c-0.2,0-0.4,0-0.5,0c-0.1,0-0.1,0.2-0.2,0.3c0.1,0,0.2,0.1,0.3,0
		C1025.2,126,1025.4,125.9,1025.5,125.8c0-0.1,0-0.3,0-0.4c0,0,0-0.1-0.1-0.1c0,0.1-0.1,0.2-0.1,0.2
		C1025.4,125.7,1025.5,125.7,1025.5,125.8z M1050.5,135.3c-0.9,1.4-0.9,1.9-0.2,2.8C1050.8,137.2,1050.6,136.3,1050.5,135.3z
		 M952.1,111.1c0.1-1.2,0.3-2.4,0.4-3.5C952,108.7,951.7,109.9,952.1,111.1z M1046.8,145.7c-0.7,1.4-0.7,1.6-0.2,2.4
		C1047,147.4,1046.9,146.6,1046.8,145.7z M998.8,164.5c-0.3-0.9-1-1.3-1.9-1.5C997.2,163.8,997.2,163.8,998.8,164.5z M1006.7,162.7
		c-0.7,0.5-0.8,1.3-1,1.9c-0.1,0.2-0.1,0.5,0.4,0.5C1006.4,164.4,1006.8,163.7,1006.7,162.7z M1003.3,137.6
		c-0.5-1.4-0.6-1.5-1.7-1.8C1002.1,136.6,1002.7,136.9,1003.3,137.6z M1044.8,157c0.4-0.3,0.3-0.7,0.2-1.1c0-0.1-0.2-0.2-0.2-0.2
		c-0.1,0-0.2,0.1-0.2,0.2C1044.5,156.3,1044.3,156.7,1044.8,157z M1028.5,117.6c-0.5,0-0.9-0.1-1.2,0c-0.3,0.1-0.4,0.4-0.3,0.7
		c0.1,0.3,0.5,0.4,0.7,0.3C1028,118.3,1028.2,118,1028.5,117.6z M963,104.4c0.3-0.7,0.3-0.7-0.8-1.8
		C962.2,103.3,962.2,103.3,963,104.4z M1054.1,194.7c-0.1,0.9-0.1,1.4,0.6,1.9C1054.8,195.9,1054.7,195.4,1054.1,194.7z M1030,133.4
		c0.5-0.3,0.6-0.7,0.5-1.2c0-0.1-0.2-0.2-0.3-0.2c-0.1,0-0.2,0.1-0.3,0.2C1029.8,132.5,1029.6,132.9,1030,133.4z M969.4,150.4
		c-0.2-0.2-0.4-0.3-0.6-0.4c-0.1,0.2-0.3,0.4-0.3,0.5c0,0.2,0.3,0.3,0.4,0.4C969.1,150.8,969.2,150.6,969.4,150.4z M1055.6,186.4
		c-0.2,0.1-0.3,0.1-0.5,0.2c-0.1,0.1-0.2,0.3-0.3,0.4c0,0.1,0.1,0.3,0.1,0.4c0,0.1,0.2,0.1,0.3,0
		C1055.7,187.3,1055.8,187.2,1055.6,186.4z M1019.3,121.6c0.1,0.1,0.1,0.2,0.2,0.2c0.3,0.1,0.8-0.2,0.8-0.5c0-0.1-0.2-0.3-0.3-0.4
		C1019.7,121,1019.3,121.3,1019.3,121.6z M948.3,92c0.5-0.7,0.3-1.2,0-2C948,90.8,947.9,91.4,948.3,92z M1031.8,126.5
		c-0.6,1-0.6,1-0.3,1.7C1031.8,127.6,1032.1,127.1,1031.8,126.5z M993.9,156.4c-0.5,1.4-0.5,1.4,0,2
		C994.2,157.8,994.2,157.3,993.9,156.4z M1054.4,97.7c-0.6,0.4-1,0.7-0.9,1.6C1054.1,98.8,1054.4,98.5,1054.4,97.7z M1037.3,185
		c-0.3,0.6-0.7,0.9-0.4,1.6C1037.3,186.2,1037.5,185.8,1037.3,185z M1064.5,90.4C1064.4,90.4,1064.4,90.4,1064.5,90.4
		c-0.1,0.4-0.1,0.7-0.1,1c0.1-0.2,0.1-0.4,0.1-0.5C1064.5,90.7,1064.5,90.5,1064.5,90.4z M971.3,156.1c0.1-0.3,0.2-0.5,0.2-0.7
		c0-0.1-0.3-0.2-0.4-0.2c-0.3,0-0.5,0.2-0.3,0.5C970.9,155.8,971.1,155.9,971.3,156.1z M1056.8,165.4c0.2-0.7-0.1-1-0.5-1.4
		C1056.1,164.7,1056.4,165.1,1056.8,165.4z M1036.5,193.2c0.2-0.2,0.3-0.3,0.4-0.5c0-0.1-0.1-0.3-0.1-0.4c-0.1,0.1-0.3,0.2-0.3,0.3
		C1036.4,192.8,1036.4,193,1036.5,193.2z M954.2,100.6c-0.1,0.4-0.2,0.6-0.2,0.7c0,0.1,0.1,0.1,0.2,0.2c0,0,0.1-0.1,0.1-0.1
		C954.3,101.2,954.3,101.1,954.2,100.6z M981.2,141.2c-0.1-0.2-0.1-0.3-0.2-0.5c-0.1,0.1-0.3,0.1-0.3,0.2c0,0.2,0.1,0.3,0.1,0.5
		C981,141.3,981.1,141.2,981.2,141.2z M1000.8,147.1c0-0.1,0-0.1,0-0.2c-0.1,0-0.2,0-0.3,0.1c0,0,0,0.2,0,0.3
		C1000.6,147.2,1000.7,147.1,1000.8,147.1z M1047.6,199.1c0.2,0.2,0.3,0.4,0.4,0.4c0.1,0,0.2-0.2,0.4-0.2c-0.1-0.1-0.2-0.3-0.3-0.4
		C1048,198.8,1047.8,198.9,1047.6,199.1z M945.7,83.5c-0.1,0.1-0.2,0.3-0.2,0.4c0,0,0.2,0.2,0.3,0.2c0.1-0.1,0.2-0.2,0.3-0.4
		C945.9,83.7,945.9,83.6,945.7,83.5z M1064.5,167c0,0-0.1,0-0.1,0.1c0,0.1,0,0.2,0,0.3c0,0,0.1,0,0.1-0.1
		C1064.5,167.2,1064.5,167.1,1064.5,167z M970.8,196c-0.1-0.1-0.1-0.1-0.2-0.2c0,0-0.1,0.1-0.1,0.1c0,0.1,0.1,0.2,0.2,0.3
		C970.7,196.1,970.7,196.1,970.8,196z M951.3,95.3c0,0,0-0.1-0.1-0.1c0,0-0.1,0.1-0.1,0.1c0,0,0,0.1,0.1,0.1
		C951.3,95.3,951.3,95.3,951.3,95.3z M964.3,99.2c0.1,0.1,0.1,0.1,0.2,0.2c0,0,0.1-0.1,0.1-0.1c-0.1-0.1-0.1-0.1-0.2-0.2
		C964.3,99.1,964.3,99.2,964.3,99.2z M1042.8,198.9c0-0.1-0.1-0.2-0.1-0.3c0,0-0.1,0.1-0.1,0.1c0,0.1,0,0.2,0,0.3
		C1042.7,199,1042.8,198.9,1042.8,198.9z M1055.7,152.7c0,0,0-0.1,0-0.1c0,0-0.1,0-0.1,0c0,0,0,0.1,0,0.1
		C1055.6,152.7,1055.6,152.7,1055.7,152.7z M962.6,193.2c-0.1-0.1-0.2-0.1-0.3-0.2c0,0-0.1,0.1-0.1,0.1c0,0.1,0.1,0.2,0.2,0.3
		C962.4,193.3,962.5,193.3,962.6,193.2z M954,200.3c0,0,0,0.1,0,0.1c0,0,0.1,0,0.2,0.1c0-0.1,0-0.2,0-0.2
		C954.1,200.2,954,200.3,954,200.3z M949.7,146.3l0,0.1L949.7,146.3L949.7,146.3z M957,200.6c-0.1-0.1-0.2-0.1-0.2-0.2
		c0,0-0.1,0.1-0.1,0.1c0,0.1,0.1,0.2,0.1,0.3C956.8,200.7,956.9,200.6,957,200.6z M945.2,142.4c0,0,0-0.1-0.1-0.1c0,0-0.1,0-0.1,0
		c0,0.1,0.1,0.1,0.1,0.2C945.1,142.5,945.1,142.5,945.2,142.4z M947.6,121.1l-0.1,0.1l0.1,0L947.6,121.1z M952.3,104.8l0.1-0.1
		l-0.1,0L952.3,104.8z M946.9,152.5L946.9,152.5l0,0.1L946.9,152.5z M1059,171.5L1059,171.5l-0.1,0.1L1059,171.5z M1040.9,176.3
		c0,0-0.1,0.1-0.1,0.1c0,0,0,0.1,0.1,0.1c0,0,0.1-0.1,0.1-0.1C1041,176.4,1040.9,176.3,1040.9,176.3z M1041.6,185
		c0,0-0.1,0.1-0.1,0.1c0,0.1,0.1,0.2,0.1,0.3c0,0,0.1-0.1,0.1-0.1C1041.7,185.2,1041.7,185.1,1041.6,185z M1042.4,190.4l0.1-0.1
		l-0.1,0L1042.4,190.4z M954.9,193.4c0-0.1,0-0.1,0.1-0.2c0,0-0.1,0-0.1,0C954.9,193.3,954.9,193.3,954.9,193.4z M958.8,196.4l0.1,0
		L958.8,196.4L958.8,196.4z M1006.7,132.5l-0.1,0.1l0.1,0L1006.7,132.5z"></path>
	<path class="st0" d="M650.6,83.7c1.1,3.8,1.5,7.7,1.2,11.6c-0.2,2.3-0.5,4.6-0.6,6.9c-0.2,2.5-0.6,4.9-0.3,7.4c0,0.1,0,0.2,0,0.3
		c0,1.4-0.1,1.5-1.5,1.5c-1.9,0-3.8,0.2-5.6,0.5c-0.6,0.1-1.2,0.2-1.8,0.2c-1.2,0-2.3,0-3.5,0c-2.2,0-4.4,0.1-6.6,0.2
		c-1.8,0.1-3.6,0.2-5.4,0.5c-2,0.3-4,0.5-5.9,0.3c-1.8-0.2-3.5-0.3-5.3-0.1c-0.7,0.1-1.4,0-2.1-0.2c-1.8-0.4-3.5,0-5.1,1
		c-0.1,2.2-0.2,4.3-0.4,6.5c0,0.7-0.2,1.4-0.2,2.1c0,0.7,0,1.3,0.1,2c0.3,1.2,0.8,2.3,0.7,3.5c2.1-0.1,4.2-0.3,6.2-0.4
		c0.3,0,0.7-0.1,1-0.1c1.2-0.1,2.4-0.3,3.6-0.3c3,0,6,0.1,9,0.1c1.3,0,2.6-0.2,4-0.2c0.8,0,1.7,0,2.5,0.1c1.2,0.1,2.4,0.3,3.6,0.5
		c0.3,0,0.5,0.1,0.8,0.2c0.7,0.3,1.5,0.4,2.3,0.5c1,0,1.4,0.3,1.6,1.3c0.1,0.5,0.2,1,0.2,1.5c0.1,2-0.1,4-0.4,5.9
		c-0.3,1.6-0.2,3.3-0.3,5c-0.1,2.2-0.1,4.4-0.1,6.6c0,1.9,0,3.8,0,5.6c0,0.6,0,1.2-0.4,1.8c-1,0.3-2,0.2-3.1,0.2
		c-1.8,0-3.5-0.2-5.3-0.2c-1,0-2,0.1-3,0.2c-0.7,0-1.3,0.1-2,0.1c-2.6-0.1-5.2-0.4-7.8-0.4c-2.5,0-5,0.1-7.5,0.2
		c-0.3,0-0.6,0.1-1,0.2c-0.8,0.1-1.6,0.2-2.5,0.2c-0.4,0-0.8,0-1.2,0c-1.1,0.1-1.5,0.5-1.5,1.5c0,2.5-0.1,5-0.1,7.5c0,1.3,0,2.6,0,4
		c0,0.9,0.1,1.9,0.5,2.8c0.3,0,0.6,0.1,0.8,0.1c0.9-0.1,1.9-0.1,2.8-0.2c1-0.1,2.1,0,3.1-0.2c1.7-0.2,3.3,0.1,5,0.2
		c0.7,0,1.3,0.1,2,0c4-0.2,8-0.2,11.9-0.1c0.8,0,1.7,0.1,2.5,0.1c3.9,0,7.9-0.1,11.8-0.1c0.7,0,1.4-0.1,2.1-0.2
		c1-0.1,1.5,0.3,1.5,1.3c0,1.3-0.1,2.6-0.2,4c0,0.6-0.2,1.1-0.1,1.6c0.2,1.4,0,2.8-0.2,4.1c-0.2,1.6-0.5,3.3-0.7,4.9
		c-0.1,0.5-0.1,1.1,0,1.7c0.3,2,0.1,4.1,0,6.1c-0.1,1-0.2,2,0.2,3c-0.2,0.2-0.4,0.5-0.6,0.8c-0.4,0.5-0.9,0.7-1.6,0.8
		c-1,0.1-2.1,0.2-3.1,0.3c-2.7,0.3-5.5,0.6-8.2,0.8c-1.2,0.1-2.3,0-3.5,0c-2.5,0-5-0.1-7.5-0.1c-3.6,0-7.2-0.4-10.7-0.6
		c-1-0.1-2.1-0.1-3.1-0.2c-1.5,0-3.1-0.1-4.6,0c-1.9,0.1-3.9,0.2-5.8,0.3c-1.4,0.1-2.9,0-4.3-0.2c-1.9-0.3-3.8-0.2-5.6,0.2
		c-2.4,0.6-4.7,0.4-7.1,0.3c-0.3,0-0.7-0.1-1,0c-1.4,0.1-2.9,0.3-4.3,0.3c-1,0-2.1,0-3.1-0.2c-0.9-0.2-1.7-0.5-2.3-1.6
		c-0.2-0.8-0.3-1.8-0.2-2.9c0.1-1-0.1-2.1-0.2-3.1c-0.3-2.1-0.1-4.2-0.1-6.3c0-1.6,0.1-3.2,0.1-4.8c0.1-3.1,0.1-6.2,0.1-9.3
		c0-1.5-0.1-3.1-0.1-4.6c0-2.6,0.1-5.2,0.1-7.8c0-0.9-0.1-1.9-0.1-2.8c-0.1-3-0.2-6.1-0.2-9.1c0-1.5-0.3-3,0.1-4.5
		c-0.3-1.9-0.2-3.7-0.5-5.6c-0.5-2.6-0.7-5.1-1-7.7c-0.1-1.1,0-2.3,0.1-3.5c0.3-2.8,0.6-5.6,0.8-8.4c0.1-1.3,0.2-2.6,0.2-4
		c0-3.2,0-6.4,0.1-9.6c0.1-2.1,0-4.2,0.3-6.3c0.4-3,0.4-6.1,0.4-9.1c0-1.8,0.1-3.6-0.3-5.5c-0.2-0.8,0.5-1.4,1.3-1.3
		c0.4,0,0.9,0.2,1.3,0.3c1.2,0.4,2.5,0.3,3.8,0.2c1.9-0.2,3.8-0.7,5.7-0.3c0.4,0.1,0.9,0,1.3,0c2,0,4.1,0.3,6.1,0.5
		c1.5,0.1,3,0.1,4.5,0.1c3.6,0.1,7.3,0.2,10.9,0.2c0.4,0,0.9,0.1,1.3,0c3-0.3,6-0.3,8.9-0.3c0.6,0,1.2-0.1,1.8-0.1
		c0.3,0,0.6-0.1,0.8-0.1c1.7,0.1,3.3,0.2,4.9,0.2c2-0.1,4,0.2,6,0.1c2.8-0.2,5.5-0.2,8.3-0.3c0.3,0,0.7,0,1-0.1
		c2-0.4,4.1-0.3,6.1-0.1C648.3,83.6,649.4,83.6,650.6,83.7z M598.5,88.9c0,0,0-0.1,0-0.1c-0.1,0-0.2,0-0.2,0c0,0,0,0.1,0,0.1
		C598.4,88.9,598.5,88.9,598.5,88.9z M645,195.1l0,0.1l0.1-0.1L645,195.1z M648.2,193.5C648.2,193.5,648.2,193.4,648.2,193.5
		c-0.1-0.1-0.1-0.1-0.2-0.1c0,0.1,0,0.1,0,0.2C648.1,193.5,648.1,193.5,648.2,193.5z M582.9,189.6c0,0,0.1-0.1,0.1-0.1
		c0,0-0.1-0.1-0.1-0.1c-0.1,0.1-0.1,0.1-0.2,0.2C582.8,189.6,582.9,189.6,582.9,189.6z M647,178.2c0,0,0.1,0,0.1,0
		c0-0.1,0-0.1-0.1-0.2C647,178.1,647,178.2,647,178.2z M587.6,85.8l-0.1,0.1L587.6,85.8L587.6,85.8z M595.1,132.7
		c0,0.1,0,0.2-0.1,0.2C595,132.9,595.1,132.8,595.1,132.7c-0.4-0.2-0.8-0.4-1.3-0.6C594.3,133,594.3,133,595.1,132.7z M578.1,93.9
		c0.1-0.1,0.2-0.2,0.3-0.3c0,0-0.1-0.2-0.1-0.2c-0.1,0.1-0.2,0.2-0.3,0.3C578,93.6,578.1,93.7,578.1,93.9z M600.2,96.1
		c-0.1-0.1-0.1-0.2-0.2-0.3c-0.1,0.1-0.2,0.2-0.2,0.3c0,0.1,0,0.2,0,0.3c0,0,0,0.1,0.1,0.1c0.1,0,0.2-0.1,0.2-0.1
		C600.2,96.3,600.2,96.2,600.2,96.1z M596.3,108.8c-0.1,0.2-0.3,0.3-0.2,0.4c0,0.1,0.2,0.2,0.2,0.3c0.1-0.1,0.2-0.2,0.2-0.3
		C596.6,109.1,596.5,109,596.3,108.8z M595.4,190.9c0-0.1,0-0.2,0-0.3C595.4,190.7,595.4,190.8,595.4,190.9c0.4,0.1,0.8,0.2,1.4,0.4
		C596.1,190.6,596.1,190.6,595.4,190.9z M603.2,175.2c-0.1,0.1-0.2,0.2-0.2,0.4c0,0.1,0.1,0.1,0.2,0.2c0.1-0.1,0.2-0.2,0.3-0.3
		C603.4,175.4,603.3,175.3,603.2,175.2z M581,176.2c0.1,0.1,0.1,0.2,0.2,0.2c0-0.1,0.1-0.2,0.1-0.3c0-0.1,0-0.2-0.1-0.3
		c0,0-0.1-0.1-0.1-0.1c-0.1,0.1-0.2,0.1-0.2,0.2C581,176,581,176.1,581,176.2z M583,163.1c0.1-0.2,0.2-0.4,0.2-0.5
		c0-0.1-0.2-0.2-0.3-0.3c-0.1,0.1-0.2,0.2-0.2,0.3C582.8,162.8,582.9,162.9,583,163.1z"></path>
	<path class="st0" d="M46.4,84.3c1-0.5,1.8-0.6,2.6-0.6c1.5,0,3,0,4.5-0.2c1-0.1,2-0.1,3,0.1c1,0.2,2,0.1,3,0.1c0.9,0,1.8,0,2.6,0.2
		c0.9,0.2,1.8,0.2,2.6,0.1c2.3-0.3,4.5,0,6.8,0c2.3,0,4.5,0,6.8,0c3.2,0,6.4-0.1,9.6-0.1c0.5,0,1,0,1.5,0c1.9,0,3.9,0,5.8,0
		c2,0,4-0.1,6-0.1c0.3,0,0.6-0.1,0.8,0c1.6,0.2,3.2,0.1,4.8,0.1c1.4,0,2.9,0.3,4.2,0.7c1,0.3,2,0.6,3,0.8c1.7,0.3,3,1.3,4.5,2.1
		c0.3,0.2,0.7,0.4,1,0.6c3.2,1.5,6.1,3.4,8.6,5.8c2.6,2.4,4.8,5.1,6.1,8.4c0.1,0.3,0.2,0.7,0.5,0.9c0.7,0.7,1,1.7,1.3,2.6
		c0.2,0.6,0.5,1.2,0.7,1.9c0.6,1.6,1.1,3.1,1.2,4.8c0.2,2.5,0.2,5.1,0.2,7.6c0,3.4-0.6,6.8-1,10.2c-0.3,3-1.3,5.9-2.4,8.8
		c-0.1,0.4-0.3,0.7-0.4,1.1c-0.4,1.8-1.5,3.2-2.5,4.6c-2,2.8-4.5,5-6.9,7.4c-0.3,0.3-0.6,0.5-0.9,0.7c-3,2-6.4,3.1-9.9,4.1
		c-0.7,0.2-1.4,0.4-2.1,0.6c-1.4,0.5-2.9,0.6-4.4,0.6c-1.8,0-3.5,0-5.3,0.3c-1,0.2-2.1,0-3.1,0c-2.4,0.1-4.8,0.3-7.1,0.1
		c-0.7-0.1-1.4-0.2-2.1-0.2c-2.4-0.1-4.9-0.2-7.3-0.3c-0.3,0-0.7,0.1-1,0.2c-0.3,0.1-0.6,0.4-0.6,0.7c0,0.5,0,1,0.1,1.5
		c0.5,2.4,0.4,4.8-0.3,7.2c-0.6,2.4-0.9,4.9-0.7,7.4c0.1,0.9,0.1,1.8,0.1,2.6c0.1,2.4,0.3,4.9,0.3,7.3c0,1.6-0.1,3.2-0.1,4.8
		c0,2.7-0.1,5.4-0.1,8.1c0,0.4,0,0.8,0,1.1c-0.6,0.8-1.3,1.2-2.2,1c-1.7,0.5-3.5,0.4-5.3,0.4c-0.9,0-1.8,0.1-2.6,0.2
		c-3.3,0.2-6.5,0.3-9.8,0.2c-1.1,0-2.2,0-3.3-0.1c-1.5-0.1-3.1-0.3-4.6-0.6c-0.8-0.1-1.6-0.1-2.5,0c-0.6,0.1-1.2,0.3-1.8,0.3
		c-0.5,0-1,0-1.5-0.1c-0.6-0.2-1-0.6-1-1.3c-0.1-1.7-0.2-3.3-0.2-4.9c0-3.4,0.1-6.7,0.2-10.1c0.1-2.8,0.3-5.5,0.3-8.3
		c0-1.5-0.2-3-0.3-4.5c-0.3-3.3-0.6-6.5-0.8-9.7c-0.1-1-0.1-2,0-3c0.3-2.4,0.5-4.8,0.7-7.2c0.1-1.2,0.1-2.4-0.1-3.6
		c-0.2-0.7-0.1-1.5-0.1-2.3c0-4.2,0-8.4,0-12.6c0-0.3,0-0.6,0-0.8c0.2-1.5,0.1-3.1,0-4.6c0-1,0-2.1,0-3.1c0.1-2.5,0.3-5,0.3-7.4
		c0-1.6,0-3.2,0-4.8c0-1.4,0-2.9,0-4.3c0-0.6-0.1-1.2-0.1-1.8c0-0.9,0-1.9,0-2.8c0-2.1,0.4-4.2,0.6-6.3c0-0.2,0.1-0.3,0-0.5
		c-0.4-2.2,0-4.5-0.6-6.7c-0.1-0.2-0.1-0.4-0.1-0.7C46,87.2,46.2,85.8,46.4,84.3z M119.9,95.8c-0.2,0.3-0.3,0.5,0,0.8
		c0-0.1,0.1-0.2,0.1-0.3C120,96.1,119.9,96,119.9,95.8c-0.2-0.1-0.3-0.2-0.5-0.4c0,0.2,0.1,0.3,0.1,0.3
		C119.6,95.8,119.8,95.8,119.9,95.8z M50.8,126.8c-0.6,0.9-0.6,0.9,0,1.7C50.8,127.8,50.8,127.3,50.8,126.8c0-0.1-0.1-0.2-0.1-0.3
		C50.7,126.6,50.8,126.7,50.8,126.8z M80.5,112.4c-0.1,0.6-0.2,1.2-0.2,1.8c0,0.4,0,0.8,0,1.2c0.1,1.8,0.2,3.5,0.3,5.3
		c0,1,0.1,2.1,0.1,3.1c0,1.8-0.3,3.6,0.1,5.4c0.1,0.3,0.2,0.6,0.3,0.9c0.4,0,0.7,0.1,1,0.1c0.8,0,1.5,0,2.3-0.1c0.6,0,1.1,0,1.7-0.1
		c1.9-0.2,3.8-0.5,5.8-0.3c1.7,0.2,3.4,0,5.1-0.5c1.3-0.4,2.5-0.8,3.6-1.6c0.5-0.4,1-0.9,1.2-1.5c0.5-1.6,1-3.3,1.4-4.9
		c0.7-3-0.7-5.2-3.1-7c-0.6-0.4-1.2-0.7-2-0.8c-1.3-0.2-2.6-0.5-3.9-0.7c-0.9-0.1-1.9-0.2-2.8-0.2c-1.7-0.1-3.4,0-5.1-0.5
		c-1.5-0.5-3.1-0.2-4.6-0.1C81.3,112,80.9,112.2,80.5,112.4z M76,188.6c-0.8,0.9-0.8,1.4,0.3,2.1C76.4,190,76.4,189.3,76,188.6z
		 M53,131.5c0.5-0.2,0.6-0.6,0.5-1.1c0-0.3-0.1-0.5-0.5-0.5C52.9,130.4,52.7,130.9,53,131.5z M100.4,89.6c0.7,0.2,1.2,0,1.7-0.4
		C101.4,88.9,100.8,88.9,100.4,89.6z M122.6,92.8c-0.1-0.7-0.6-0.8-1.3-1.1C121.6,92.5,122.1,92.7,122.6,92.8z M106.1,134.3
		c-1.2,0.8-1.2,0.8-1.4,1.6C105.3,135.6,105.9,135.3,106.1,134.3z M68.7,149.3c-0.3,0.4-0.4,0.9,0,1.3C69.3,150,69.3,150,68.7,149.3
		z M94.9,154.5c0,0.1,0,0.2,0,0.2c0.3,0,0.6,0,0.9,0c0,0,0.1-0.2,0.1-0.3c0-0.1-0.1-0.2-0.2-0.2C95.4,154.3,95.1,154.4,94.9,154.5z
		 M68.3,109.7c0.1,0.1,0.1,0.1,0.1,0.2c0,0,0.1,0,0.1-0.1c0.3-0.5,0.5-0.9,0.1-1.7C68.5,108.8,68.4,109.3,68.3,109.7z M100.6,103.5
		c-0.3-0.2-0.5-0.4-0.6-0.4c-0.2,0-0.3,0.2-0.5,0.3c0.1,0.1,0.3,0.3,0.4,0.4C100,103.8,100.2,103.6,100.6,103.5z M79.1,139.7
		c0.3-0.2,0.5-0.3,0.6-0.5c0.1-0.3-0.1-0.4-0.3-0.4c-0.2-0.1-0.5,0-0.5,0.3C78.9,139.2,79,139.4,79.1,139.7z M94.8,103.3
		c-0.1-0.2-0.2-0.3-0.2-0.3c-0.2,0-0.4,0.1-0.6,0.1c0,0,0,0.3,0.1,0.3C94.4,103.4,94.6,103.3,94.8,103.3z M72.7,96.7
		c-0.3,0.2-0.5,0.4-0.8,0.5C72.3,97.4,72.6,97.3,72.7,96.7z M70.1,182.5c0-0.1,0.2-0.2,0.1-0.3c-0.1-0.2-0.2-0.4-0.3-0.7
		c-0.1,0.1-0.2,0.1-0.2,0.2c0,0.2,0.1,0.5,0.2,0.7C70,182.5,70,182.5,70.1,182.5z M107.9,93.6c0,0.3-0.1,0.5-0.1,0.6
		c0,0.1,0.2,0.2,0.3,0.2c0.1-0.2,0.2-0.3,0.2-0.5C108.3,93.9,108.1,93.8,107.9,93.6z M105.5,122.7c-0.1-0.2-0.2-0.3-0.2-0.4
		c-0.1,0.1-0.2,0.2-0.2,0.2c0,0.1,0.1,0.3,0.1,0.4C105.3,122.9,105.4,122.8,105.5,122.7z M81.9,137.5c0.1-0.1,0.2-0.1,0.3-0.1
		c-0.2-0.1-0.3-0.2-0.5-0.3c0,0-0.1,0.1-0.2,0.2C81.7,137.4,81.8,137.4,81.9,137.5z M97.2,141.3c-0.5-0.2-0.5-0.2-1,0.1
		C96.5,141.6,96.9,141.7,97.2,141.3z M57,197.1c0.2,0.2,0.3,0.3,0.4,0.3c0.1,0,0.3,0,0.4-0.1c-0.1-0.1-0.2-0.3-0.3-0.3
		C57.4,197,57.3,197.1,57,197.1z M93,156.5c0,0,0-0.1,0.1-0.1c-0.1,0-0.2-0.1-0.3-0.1c0,0,0,0.1,0,0.1
		C92.8,156.5,92.9,156.5,93,156.5z M65.9,183.6c0,0.2,0,0.3,0,0.5c0,0,0.2,0,0.2,0c0-0.1,0-0.2,0-0.3
		C66.1,183.7,66,183.7,65.9,183.6z M74.1,132.7c-0.1,0.3-0.1,0.5-0.1,0.6c0,0.1,0.1,0.1,0.2,0.2c0,0,0.1-0.1,0.1-0.1
		C74.2,133.2,74.1,133.1,74.1,132.7z M61.1,188.2C61.1,188.2,61,188.2,61.1,188.2c-0.1,0.2-0.1,0.3,0,0.3c0,0,0.1-0.1,0.1-0.1
		C61.2,188.3,61.1,188.2,61.1,188.2z M57.9,155.3c-0.1,0-0.1,0-0.2,0c0,0.2-0.1,0.4-0.1,0.6c0,0,0.1,0.1,0.2,0.1
		c0,0,0.1-0.1,0.1-0.1C57.9,155.7,57.9,155.5,57.9,155.3z M64.9,137.2c-0.1,0-0.1-0.1-0.2-0.1c0,0-0.1,0.1-0.1,0.1
		c0,0.1,0.1,0.2,0.1,0.2C64.8,137.4,64.9,137.3,64.9,137.2z M50.6,196.7c-0.1-0.1-0.2-0.2-0.4-0.2c0,0-0.1,0.1-0.1,0.1
		c0.1,0.1,0.1,0.2,0.2,0.3C50.4,196.9,50.5,196.8,50.6,196.7z M107.6,87.3c-0.1-0.1-0.1-0.3-0.1-0.3c-0.1,0-0.3,0.1-0.4,0.1
		c0,0.1,0.1,0.2,0.1,0.3C107.3,87.4,107.4,87.3,107.6,87.3z M65.8,175.7c0,0-0.1,0-0.1,0.1c-0.2,0.2-0.1,0.6,0.1,0.7
		c0,0,0.1,0,0.1,0c0.2-0.1,0.2-0.4,0.1-0.7C65.9,175.7,65.8,175.7,65.8,175.7z M92.9,142.9c-0.1,0.1-0.1,0.1-0.2,0.2
		c0,0,0.1,0.1,0.1,0.1c0.1,0,0.2-0.1,0.3-0.1C93,143,93,142.9,92.9,142.9z M132.2,102.5c0-0.1,0.1-0.2,0.1-0.3
		c0-0.1-0.2-0.1-0.2-0.2c0,0.1-0.1,0.2-0.1,0.3C132,102.5,132.1,102.5,132.2,102.5z M114.1,139.6c0,0,0.1,0.1,0.1,0
		c0,0,0-0.1,0.1-0.1c0,0-0.1,0-0.1,0C114.1,139.5,114.1,139.5,114.1,139.6z M118.5,120.6c0,0.1-0.1,0.2-0.1,0.3
		c0,0.1,0.1,0.2,0.1,0.3c0-0.1,0.1-0.2,0.1-0.3C118.7,120.8,118.6,120.7,118.5,120.6z M132.5,131.7c0.1-0.1,0.1-0.2,0.1-0.3
		c0-0.1-0.1-0.2-0.2-0.3c-0.1,0.1-0.1,0.2-0.1,0.3C132.3,131.5,132.4,131.6,132.5,131.7z M59.3,183.5c-0.1,0-0.2-0.1-0.3-0.1
		c0,0.1-0.1,0.2-0.1,0.3c0,0,0.1,0.1,0.2,0.1C59.3,183.7,59.3,183.6,59.3,183.5z M117.3,142.2c0,0-0.1-0.1-0.1-0.1
		c0,0-0.1,0.1-0.1,0.1c0,0.1,0.1,0.1,0.1,0.2C117.3,142.3,117.3,142.3,117.3,142.2z M99.5,147.7C99.4,147.7,99.4,147.6,99.5,147.7
		c-0.1-0.1-0.1-0.1-0.1-0.1c0,0,0,0.1,0,0.1C99.4,147.7,99.4,147.7,99.5,147.7z M110,102.2L110,102.2L110,102.2L110,102.2z
		 M96.2,96.1c0,0-0.1,0-0.1,0c0,0.1,0,0.1,0,0.2C96.1,96.3,96.2,96.3,96.2,96.1C96.2,96.2,96.2,96.2,96.2,96.1z M63.5,90.9l0.1-0.1
		l-0.1-0.1L63.5,90.9z M69.4,194.2c0,0,0-0.1,0-0.1c0,0-0.1,0-0.1,0c0,0.1,0,0.1,0,0.2C69.4,194.2,69.4,194.2,69.4,194.2z
		 M90.5,156.6C90.5,156.6,90.4,156.5,90.5,156.6c-0.1-0.1-0.2,0-0.2,0c0,0,0.1,0.1,0.1,0.1C90.4,156.7,90.5,156.6,90.5,156.6z"></path>
	<path class="st0" d="M930.9,136.1c-0.1,2.1-0.2,4.3-0.3,6.4c-0.1,1.6-0.1,3.2-0.2,4.8c-0.1,2.9-0.6,5.7-1.2,8.5
		c-0.4,1.7-0.8,3.4-1.2,5.2c-0.1,0.4-0.2,0.7-0.3,1c-1.5,2.8-3.1,5.7-4.7,8.5c-0.8,1.4-1.8,2.6-2.6,4c-0.6,1-1.2,2-1.8,3
		c-1.3,2.2-3.1,4.1-5.1,5.7c-1.4,1.2-2.7,2.4-4.1,3.7c-1.1,1.1-2.2,2.1-3.6,2.8c-0.6,0.3-1.1,0.7-1.7,1.1c-2.6,1.7-5.3,3.3-8.3,4.3
		c-0.8,0.3-1.6,0.7-2.4,1c-1.3,0.6-2.6,1.1-4,1.3c-0.4,0-0.7,0.1-1.1,0.2c-2.8,0.9-5.7,1.4-8.6,1.7c-2.5,0.2-5,0.4-7.5,0.6
		c-1.8,0.1-3.7,0.1-5.5,0.6c-0.2,0-0.4,0-0.5,0c-1.8,0-3.5-0.1-5.3-0.1c-1.8,0-3.5-0.5-5.2-1.1c-1.6-0.6-3.3-1.1-4.9-1.6
		c-2.6-0.9-5.2-1.9-7.4-3.6c-0.1-0.1-0.3-0.3-0.4-0.3c-1.7-0.7-2.9-2-4.1-3.2c-0.3-0.3-0.5-0.5-0.8-0.7c-1.3-0.9-2.5-1.9-3.6-3.1
		c-0.8-0.8-1.8-1.5-2.7-2.1c-1.5-0.9-2.9-2.1-4-3.4c-1.9-2.2-3.9-4.4-5.4-6.9c-0.8-1.4-1.8-2.8-3-3.9c-0.6-0.6-1.1-1.3-1.7-1.9
		c-0.6-0.6-1-1.4-1.3-2.2c-0.5-1.3-1.1-2.6-1.9-3.8c-1-1.6-1.7-3.3-1.9-5.3c-0.4-3.4-0.8-6.8-1.1-10.2c-0.2-2.1-0.4-4.1-0.5-6.2
		c0-1.2,0.1-2.4,0.2-3.7c0.1-1.2,0.2-2.3,0.3-3.5c0.1-0.8,0.1-1.6,0.3-2.3c0.4-2.5,0.8-5.1,1.3-7.6c0.4-2,1-4,1.9-5.9
		c1.2-2.6,2.7-4.9,4.7-7c1.2-1.3,2.3-2.7,3.4-4.1c1.6-2.1,3.3-4.1,5.1-6c1.5-1.6,3.1-3.1,4.4-4.9c0.9-1.2,2.2-2,3.4-2.7
		c0.8-0.5,1.5-1,2.2-1.6c1.1-1,2.3-1.7,3.7-2.2c1.7-0.6,3.3-1.5,5-2.3c1.7-0.7,3.5-1.4,5.3-2.1c1.5-0.6,2.9-1.2,4.4-1.8
		c1.5-0.6,3-1,4.6-1.2c2.4-0.3,4.9-0.5,7.3-0.8c1.4-0.2,2.9,0,4.4,0.1c1.4,0.1,2.8,0.2,4.2,0.2c2.4,0,4.7,0.4,7.1,0.8
		c1.8,0.3,3.6,0.7,5.4,0.9c1.5,0.2,2.8,0.7,4.2,1.3c1.8,0.9,3.6,1.6,5.3,2.6c2,1.1,4,2.4,5.8,3.9c0.8,0.6,1.6,1.1,2.3,1.8
		c1,0.9,2,1.9,3,2.9c1.6,1.6,3.2,3.1,4.8,4.8c1.1,1.1,2,2.3,3,3.5c2.3,2.8,4.1,5.9,6,9c1.3,2.1,2.2,4.4,3,6.7
		c1.2,3.2,2.1,6.4,3.1,9.6c0.4,1.3,0.6,2.6,0.6,4c-0.1,1.1,0,2.2,0,3.3C930.8,136.1,930.8,136.1,930.9,136.1z M845.6,189.2
		c0.1,0.1,0.1,0.1,0.2,0.2c0-0.1,0-0.1,0.1-0.2C845.7,189.2,845.6,189.2,845.6,189.2c-0.1-0.1-0.2-0.2-0.3-0.3c0,0-0.1,0.1-0.1,0.1
		C845.3,189.1,845.4,189.2,845.6,189.2z M826.7,170.2c0,0,0,0.1,0,0.1c0,0-0.1,0.1-0.1,0.1C826.7,170.3,826.7,170.3,826.7,170.2
		c-0.3-0.1-0.4-0.7-0.9-0.6C825.9,170.4,825.9,170.4,826.7,170.2z M870.6,113.9c-1.8-0.3-3.5,0.3-5.2,1c-0.4,0.2-0.8,0.3-1.2,0.4
		c-2.7,0.8-5.2,1.9-7.6,3.5c-2.5,1.7-4.6,3.6-6.1,6.1c-1,1.7-2,3.4-2.7,5.2c-0.1,0.4-0.3,0.8-0.5,1.2c-0.9,1.9-1.3,3.9-1.5,6
		c0,0.7-0.1,1.3-0.2,2c-0.2,1.8-0.4,3.6-0.1,5.5c0.1,0.8,0.2,1.7,0.2,2.5c0,1.1,0.3,2.1,1,3.1c0.5,0.8,1.1,1.6,1.4,2.5
		c0.7,1.8,1.7,3.3,3.1,4.7c1.2,1.1,2.4,2.3,3.4,3.6c1.3,1.6,3.1,2.5,4.7,3.7c0.2,0.1,0.4,0.2,0.7,0.3c1.6,0.5,3.2,1.2,4.9,1.4
		c1.7,0.3,3.2,1.1,5,1.2c0.7,0.1,1.3,0.3,2,0.4c1.4,0.2,2.8,0.3,4.2,0.4c0.4,0,0.9,0,1.3-0.2c1.5-0.6,2.9-1.2,4.2-2.2
		c0.3-0.3,0.7-0.5,1.1-0.7c1.3-0.8,2.6-1.6,3.9-2.4c0.4-0.3,0.8-0.6,1.1-0.9c1-1.2,2-2.4,3.1-3.6c0.9-1,1.7-2.1,2.7-3
		c0.9-0.9,1.6-2,2.3-3.1c1-1.7,1.3-3.5,1.8-5.4c0.4-1.6,0.5-3.1,0.3-4.7c-0.2-1.6-0.2-3.3-0.7-4.9c-0.2-0.8-0.2-1.6-0.2-2.4
		c0-2.4-0.5-4.6-1.6-6.7c-0.6-1.2-1.2-2.4-2-3.5c-0.9-1.2-1.8-2.5-2.9-3.5c-1.9-1.5-4-2.8-6.1-4.1c-1.9-1.2-4.1-2-6.3-2.5
		c-1-0.2-2-0.3-2.9-0.6C873.6,113.9,872.2,113.6,870.6,113.9z M901.5,173c0.3-0.4,0.5-0.6,0.7-0.8c0.1-0.2,0.3-0.4-0.1-0.7
		C901.7,171.9,901.3,172.2,901.5,173z M888,169.5c-1.1-0.2-1.1-0.2-1.7,0.6C887,170.1,887.6,170.1,888,169.5z M917.4,154.5
		c-0.2-0.1-0.3-0.2-0.3-0.3c-0.1,0.2-0.3,0.3-0.4,0.5c0,0.1,0.1,0.2,0.2,0.3C917,154.8,917.2,154.6,917.4,154.5z M850.9,106.3
		c-0.5-0.3-0.8-0.1-1.1,0.2c0,0-0.1,0.1-0.1,0.2c0.1,0.1,0.2,0.2,0.3,0.2C850.3,106.9,850.7,106.8,850.9,106.3z M857.4,178
		c-0.1-0.2-0.2-0.2-0.3-0.3c-0.1,0.1-0.3,0.2-0.3,0.4c0,0.1,0.1,0.2,0.1,0.3C857,178.3,857.2,178.2,857.4,178z M842.7,170.1
		c0.1-0.1,0.2-0.2,0.2-0.2c-0.2-0.1-0.3-0.3-0.5-0.4c0,0-0.1,0.1-0.1,0.1C842.5,169.8,842.6,170,842.7,170.1z M882.9,173.7l-0.1,0.1
		l0.1,0.1L882.9,173.7z M910.9,100.4c0-0.1,0-0.1-0.1-0.2c0,0-0.1,0-0.1,0c0,0.1,0,0.1,0.1,0.2C910.8,100.4,910.8,100.4,910.9,100.4
		z M863.8,101.6c0,0,0-0.1,0-0.1c-0.1,0-0.2,0-0.3-0.1c0,0.1,0,0.2,0,0.3C863.5,101.6,863.6,101.6,863.8,101.6z M841.9,156.6
		c0,0-0.1-0.1-0.1-0.1c-0.1,0.1-0.1,0.1-0.2,0.2c0,0,0.1,0.1,0.1,0.1C841.8,156.8,841.9,156.7,841.9,156.6z M922.4,137.6
		c-0.1,0-0.2-0.1-0.3-0.1c0,0-0.1,0.1-0.1,0.1c0,0.1,0.1,0.2,0.2,0.2C922.3,137.7,922.4,137.6,922.4,137.6z M882.7,188.4
		c-0.1,0-0.2,0.1-0.3,0.1c0,0.1,0.1,0.3,0.1,0.3c0.1,0,0.2-0.1,0.3-0.1C882.8,188.6,882.7,188.5,882.7,188.4z M839.9,133.6
		c0,0.1-0.1,0.2-0.1,0.3c0,0,0.1,0.1,0.1,0.1c0-0.1,0.1-0.2,0.1-0.3C840,133.7,840,133.7,839.9,133.6z M842.5,143.2l-0.1,0.1l0.1,0
		L842.5,143.2z M830.4,157.3c0,0,0-0.1,0-0.1c-0.1,0-0.1,0.1-0.2,0.1C830.3,157.3,830.3,157.3,830.4,157.3z M898.3,160l-0.1,0.1
		l0.1,0L898.3,160z M889.9,167.4c0,0.1,0,0.2,0,0.2c0,0,0.1-0.1,0.1-0.1C890,167.5,889.9,167.4,889.9,167.4z M882.6,168.1
		c0,0,0-0.1-0.1-0.1c0,0-0.1,0-0.2,0c0,0.1,0.1,0.1,0.1,0.2C882.5,168.1,882.6,168.1,882.6,168.1z M874.7,89.8l0-0.1l-0.1,0.1
		L874.7,89.8z M863.5,179.1c0,0,0-0.1,0-0.1c0,0-0.1,0-0.1,0c0,0.1,0,0.1,0,0.2C863.4,179.2,863.4,179.1,863.5,179.1z M882.6,193.4
		c0,0,0-0.1-0.1-0.1c0,0-0.1,0-0.1,0c0,0.1,0.1,0.1,0.1,0.2C882.5,193.5,882.5,193.5,882.6,193.4z"></path>
	<path class="st0" d="M1180.8,82.8c1.8,0.7,3.7,0.4,5.5,0.1c1.3-0.2,2.7-0.4,4-0.5c1-0.1,2.1-0.1,3.1,0.2c1.7,0.5,3.5,0.6,5.3,0.4
		c0.8-0.1,1.7-0.1,2.6-0.2c1.8-0.3,16.2,0.7,20.3,0.5c2.4-0.1,4.8,0.1,7.1,0.2c2,0.1,4,0.3,6,0.5c0.9,0.1,1.8,0.1,2.7,0.2
		c0.7,0.1,1.3,0.3,1.9,0.5c1,0.3,2,0.6,3,0.9c2.7,0.7,5.3,1.9,7.7,3.4c2.2,1.5,4.5,2.9,6.8,4.4c2.9,1.9,5,4.4,7.1,7.1
		c1.4,1.8,2.5,3.8,3.4,5.9c0.8,1.9,1.8,3.7,2.7,5.6c0.5,1.1,0.9,2.3,1.1,3.5c0.4,2,0.7,4.1,1.4,6.1c0.5,1.4,0.6,2.9,0.8,4.3
		c0.2,1.4,0.5,2.9,0.7,4.3c0.3,1.9,0.7,3.8,1,5.8c0.1,0.6,0.1,1.2,0,1.8c-0.4,4.4-0.9,8.8-1.3,13.1c-0.1,0.8-0.2,1.7-0.4,2.5
		c-0.4,2.3-0.9,4.6-1.3,6.8c-0.1,0.6-0.1,1.2-0.3,1.8c-0.6,3-1.3,6-2.6,8.8c-0.3,0.7-0.6,1.5-0.9,2.2c-1,2.3-2.2,4.5-3.4,6.7
		c-0.1,0.2-0.3,0.4-0.4,0.6c-0.8,2.2-2.3,3.7-3.9,5.2c-0.6,0.5-1.1,1.1-1.6,1.8c-1.6,2.1-3.5,3.8-5.7,5c-1.2,0.7-2.3,1.6-3.5,2.4
		c-1.6,1.1-3.3,1.8-5.2,2c-2.3,0.3-4.6,0.9-6.8,1.3c-2.9,0.5-5.8,0.9-8.7,1.3c-0.5,0.1-1.1,0-1.7,0.1c-1,0.1-1.9,0.2-2.9,0.2
		c-2,0-3.9,0-5.9-0.1c-1.4,0-2.8-0.2-4.2-0.2c-1.1,0-2.2,0-3.3-0.3c-0.6-0.2-1.2-0.2-1.8-0.2c-2,0-3.9,0-5.9,0c-1,0-2.1,0-3.1,0
		c-2,0-3.9,0.1-5.9,0.1c-3.2,0-6.5,0-9.7,0.1c-0.4,0-0.9,0-1.3,0c-0.7,0.1-1.5,0-2.3-0.3c-0.2-0.4-0.5-0.8-0.6-1.2
		c-0.2-1.6-0.4-3.2-0.4-4.7c0-1.3,0.1-2.6,0.1-3.8c0.1-1.6,0.2-3.2,0.3-4.7c0.2-2.2,0.6-4.5,0.7-6.7c0.1-2.1,0-4.3-0.1-6.4
		c-0.1-1.9-0.3-3.9-0.5-5.8c-0.2-2.8-0.5-5.6-0.7-8.4c-0.1-2-0.1-4-0.2-6c-0.1-3.2-0.3-6.3-0.6-9.5c-0.2-2.1-0.1-4.2,0-6.2
		c0.1-1.8,0.4-3.6,0.5-5.5c0.2-3.6,0.6-7.2,0.4-10.8c-0.1-1.4,0.1-2.8,0-4.2c-0.1-2.5-0.1-5-0.3-7.5c-0.2-3.8,0-7.6,0.3-11.4
		c0.1-1.2,0.1-2.4,0.1-3.7c0-0.2,0-0.5,0.1-0.7c0.4-2.3,0.3-4.6,0-6.9C1180.1,83.9,1180.1,83.3,1180.8,82.8z M1209.6,166.2
		c0-0.1,0.1-0.1,0.1-0.2c0,0,0-0.1,0-0.2C1209.6,166,1209.6,166.1,1209.6,166.2c0,0.1,0.1,0.2,0.1,0.3c0.1,0.1,0.2,0.1,0.2,0.2
		c0-0.1,0.1-0.3,0.1-0.3C1209.9,166.3,1209.7,166.3,1209.6,166.2z M1213.4,171.3c2.6-0.1,5,0,7.4,0.8c0.2,0.1,0.5,0.1,0.7,0
		c1.3-0.4,2.7-0.8,4-1.3c0.8-0.3,1.5-0.6,2.2-0.8c0.7-0.3,1.5-0.6,2.2-0.9c1.1-0.5,2-1.2,2.6-2.3c0.8-1.5,1.7-3,2.5-4.5
		c1.4-2.6,2.2-5.4,3.2-8.2c0.3-0.9,0.6-1.9,0.7-2.8c0.4-3,0.6-6.1,0.5-9.1c0-0.9-0.1-1.7-0.1-2.6c-0.2-2.1-0.2-4.3-0.6-6.4
		c-0.3-1.4-0.7-2.9-0.8-4.3c-0.1-1.4-0.5-2.8-0.8-4.1c-0.9-3.3-2.5-6.2-4.5-9c-0.7-0.9-1.6-1.7-2.4-2.5c-0.6-0.6-1.5-0.9-2.3-1
		c-0.9,0-1.8-0.2-2.6-0.6c-0.4-0.2-0.8-0.2-1.3-0.2c-3,0.1-5.9-0.2-8.9-0.7c-0.4,0.4-0.4,0.8-0.4,1.3c-0.1,1.6-0.1,3.2-0.2,4.8
		c-0.2,2.9-0.4,5.7-0.2,8.6c0.1,2.3,0.4,4.6,0.2,7c-0.1,1-0.1,1.9-0.2,2.9c-0.1,3.5-0.3,7-0.4,10.4c-0.1,2.1-0.3,4.3-0.4,6.4
		c0,1.1,0,2.2,0,3.3c0,3.5,0,7,0,10.5c0,0.4,0,0.9,0.1,1.3c0.1,0.5,0.1,0.9,0,1.4C1213.3,169.6,1213.2,170.4,1213.4,171.3z
		 M1184.5,159.6c-0.1,0.7-0.1,1.3-0.1,1.8c0,0.2,0,0.5,0.4,0.4C1185,160.7,1185,160.7,1184.5,159.6z M1187.2,183.4
		c0.5-0.2,0.7-0.6,0.5-1.2c0-0.1-0.2-0.2-0.2-0.2c-0.1,0-0.2,0.1-0.3,0.2C1186.9,182.5,1186.9,182.9,1187.2,183.4z M1189,194.5
		c-0.5,0-0.7,0.4-0.8,0.8c0,0,0,0.1,0,0.1c0.1,0,0.3,0.1,0.3,0.1C1188.9,195.3,1189.3,195.1,1189,194.5z M1232.9,175.7
		c-0.1-0.1-0.2-0.2-0.3-0.2c-0.2,0.1-0.4,0.2-0.6,0.4c0,0,0,0.3,0.1,0.3c0.2,0,0.4,0,0.5-0.1
		C1232.7,175.9,1232.8,175.8,1232.9,175.7z M1216,94.2c0.3,0.2,0.5,0.3,0.8,0c0,0,0-0.3-0.1-0.3C1216.4,93.8,1216.1,93.9,1216,94.2z
		 M1202.7,130.2c-0.5,0.6-0.4,0.9,0,1.5C1202.7,131.2,1202.7,130.9,1202.7,130.2z M1184.5,92.2c0.1,0.1,0.2,0.1,0.3,0.2
		c0.1-0.2,0.2-0.3,0.2-0.5c0-0.1-0.1-0.3-0.2-0.4c0,0-0.3,0-0.3,0.1C1184.5,91.8,1184.5,92,1184.5,92.2z M1192.2,188.2
		c0-0.1,0-0.2-0.1-0.3c0,0-0.2,0-0.3,0.1c0,0.1,0.1,0.3,0.1,0.4C1192,188.3,1192.1,188.2,1192.2,188.2z M1256.7,153
		c0.1-0.1,0.2-0.2,0.2-0.3c0-0.1-0.1-0.2-0.2-0.3c-0.1,0.1-0.2,0.1-0.2,0.1C1256.5,152.8,1256.6,152.9,1256.7,153z M1238.4,169.1
		c-0.1-0.1-0.1-0.2-0.2-0.3c-0.1,0.1-0.2,0.2-0.2,0.3c0,0.1,0.1,0.2,0.2,0.3C1238.3,169.2,1238.3,169.2,1238.4,169.1z M1222,198.5
		c0,0,0.1,0.1,0.1,0.1c0,0,0-0.1,0.1-0.1c0,0-0.1-0.1-0.1-0.1C1222.1,198.4,1222,198.5,1222,198.5z M1217.2,99.7
		c-0.1-0.1-0.2-0.2-0.3-0.2c-0.1,0-0.2,0.1-0.3,0.1c0.1,0.1,0.2,0.2,0.3,0.2C1217,99.9,1217.1,99.8,1217.2,99.7z M1255.2,112.4
		c-0.1-0.1-0.1-0.1-0.2-0.2c0,0-0.1,0.1-0.1,0.1c0.1,0.1,0.1,0.2,0.2,0.2C1255.1,112.5,1255.2,112.4,1255.2,112.4z M1200.5,124.6
		c0,0-0.1-0.1-0.1-0.1c0,0-0.1,0.1-0.1,0.1c0.1,0,0.1,0.1,0.2,0.1C1200.5,124.7,1200.5,124.6,1200.5,124.6z M1206.7,92.7
		C1206.7,92.7,1206.6,92.7,1206.7,92.7c-0.1,0.1,0,0.2,0,0.2c0,0,0.1-0.1,0.1-0.1C1206.8,92.7,1206.8,92.7,1206.7,92.7z
		 M1243.1,126.8l-0.1,0.1l0.1,0.1L1243.1,126.8z M1205.5,134.1L1205.5,134.1L1205.5,134.1L1205.5,134.1z M1186.1,122.6l-0.1,0.1
		l0.1,0L1186.1,122.6z M1189.4,107.1c0,0,0-0.1,0-0.1c-0.1,0-0.1,0-0.2,0c0,0,0,0.1,0,0.1C1189.3,107.1,1189.4,107.1,1189.4,107.1z
		 M1188.7,149.8c0,0-0.1-0.1-0.1-0.1c0,0-0.1,0.1-0.1,0.1c0,0.1,0.1,0.1,0.1,0.2C1188.7,149.9,1188.7,149.9,1188.7,149.8z
		 M1248.1,164.1c0,0,0.1-0.1,0.1-0.1c0-0.1-0.1-0.2-0.1-0.3c0,0-0.1,0.1-0.1,0.1C1248,164,1248.1,164.1,1248.1,164.1z M1187.6,87.6
		l0.1,0.1l0-0.1L1187.6,87.6z M1197.8,177c0,0.1,0,0.1-0.1,0.2c0.1,0,0.1,0,0.2,0c0-0.1,0-0.1,0-0.2
		C1197.9,177,1197.8,177,1197.8,177z"></path>
	<path class="st0" d="M537,123.5c-1.2-0.4-2.1-1.2-2.9-2c-1.7-1.5-3.7-2.6-5.7-3.6c-0.3-0.2-0.6-0.3-0.9-0.5
		c-1.2-0.8-2.5-1.2-3.9-1.2c-0.7,0-1.3-0.2-2-0.3c-1.7-0.3-3.3-0.1-5,0c-1.5,0.1-3.1,0.4-4.6,0.6c-1,0.1-1.9,0.5-2.8,1
		c-1.4,0.8-2.8,1.5-4.3,2.2c-2.5,1.1-4.6,2.8-6.4,4.9c-1.9,2.2-3.4,4.6-4.3,7.4c-0.6,1.8-1.1,3.7-1.5,5.6c-0.1,0.5-0.2,1-0.1,1.5
		c0.1,2.8,0.2,5.5,0.4,8.3c0.1,1,0.4,2,0.7,3.1c0.2,0.6,0.5,1.1,0.5,1.7c0.1,1.2,0.7,2.3,1.2,3.4c0.3,0.8,0.8,1.4,1.3,2.1
		c0.5,0.7,1.1,1.3,1.4,2.1c0.2,0.4,0.5,0.7,0.8,1c1,1,2,2.1,3,3.1c0.3,0.4,0.7,0.7,1.1,1c0.6,0.5,1.3,1,1.9,1.6
		c0.6,0.6,1.3,0.9,2.2,1.1c0.7,0.1,1.4,0.4,2.1,0.5c0.4,0.1,0.7,0.3,1.1,0.3c0.8,0,1.5,0.2,2.3,0.4c0.6,0.2,1.3,0.2,2,0.2
		c1.1,0,2.2,0,3.3,0c0.7,0,1.4,0.1,2.2,0.1c2.4-0.1,4.7-0.4,7-1.2c0.3-0.1,0.6-0.2,0.9-0.3c2.8-0.6,5-2.3,6.9-4.4
		c0.6-0.6,1.1-1.4,1.7-2c0.5-0.2,1-0.1,1.4,0.2c0.8,0.6,1.6,1.1,2.2,1.9c1.1,1.6,2.2,3.2,3.6,4.5c0.8,0.7,1.5,1.5,2.4,2
		c0.8,0.6,1.5,1.3,2,2.1c0.5,0.9,1.3,1.7,2.1,2.3c1.6,1.3,3,2.7,4.8,3.8c0.8,0.4,1.4,1.1,1.8,1.9c0.5,0.9,1.2,1.6,2,2.2
		c0.5,0.4,0.9,0.8,1.3,1.2c-0.2,1.1-0.7,1.7-1.5,2.3c-1.7,1.1-3.3,2.4-4.6,4.1c-0.9,1.1-2.1,1.9-3.4,2.7c-0.6,0.3-1.2,0.7-1.7,1
		c-2.5,1.8-5.2,3.3-8.1,4.4c-0.9,0.3-1.7,0.8-2.5,1.2c-2.2,1.3-4.5,2.1-7,2.1c-1.8,0-3.5,0.1-5.3,0.5c-0.3,0.1-0.5,0.1-0.8,0.1
		c-2,0.1-4.1,0.3-6.1,0.4c-0.4,0-0.8,0-1.2-0.1c-2.6-0.3-5.2-0.6-7.7-1c-2.3-0.4-4.6-0.9-6.8-1.3c-1-0.2-2-0.3-2.9-0.5
		c-1.1-0.2-2.1-0.5-3.2-1c-0.6-0.3-1.1-0.5-1.7-0.7c-0.9-0.4-1.8-0.8-2.7-1.3c-1.3-0.7-2.6-1.4-4-2c-1.5-0.7-2.9-1.7-4.1-2.8
		c-2.6-2.3-5.3-4.7-7.8-7.2c-1.5-1.5-2.9-3.2-4.3-4.8c-1.3-1.6-2.6-3.3-3.9-4.9c-0.7-0.8-1.4-1.6-2-2.4c-0.3-0.3-0.5-0.7-0.8-1.1
		c-1.1-1.7-2.2-3.4-3.3-5.1c-0.3-0.5-0.5-1.1-0.8-1.7c-0.6-1.5-1.2-3-1.8-4.4c-0.5-1.2-1-2.3-1.4-3.5c-0.2-0.5-0.3-1-0.3-1.5
		c0-2.3-0.5-4.6-0.9-6.9c-0.2-0.9-0.3-1.9-0.3-2.8c-0.1-2.3-0.1-4.5,0-6.8c0-0.5,0.1-1.1,0.2-1.6c0.4-2,0.8-3.9,1.2-5.8
		c0.5-2.6,1.3-5.1,2.1-7.7c0.3-0.8,0.8-1.6,1.1-2.4c0.5-1.1,0.9-2.1,1.3-3.2c0.5-1.7,1.4-3.1,2.3-4.6c1.1-1.7,2.4-3.1,3.7-4.7
		c0.3-0.3,0.6-0.7,0.8-1.1c1.8-3.2,4.4-5.8,6.9-8.5c0.4-0.4,0.9-0.8,1.4-1.1c0.3-0.2,0.6-0.4,0.8-0.6c1.8-1.7,3.9-2.9,6-4.1
		c0.8-0.5,1.5-1,2.1-1.6c1.7-1.5,3.6-2.8,5.7-3.6c1.3-0.5,2.3-1.4,3.3-2.1c0.9-0.7,2-1,3-1.2c0.5-0.1,1-0.2,1.5-0.3
		c2-0.7,4.1-1,6.1-1.4c2.5-0.5,5-0.7,7.6-0.7c1.7,0,3.3-0.1,5,0c2.8,0.1,5.6,0.5,8.4,1.2c2.4,0.6,4.7,1.2,7,1.9
		c0.4,0.1,0.8,0.4,1.2,0.6c1.5,0.8,3,1.6,4.7,2.1c1.8,0.6,3.5,1.4,4.9,2.6c0.7,0.6,1.5,0.9,2.2,1.4c0.7,0.5,1.4,1,2.2,1.5
		c0.4,0.3,0.7,0.5,1.1,0.7c1.3,0.7,2.5,1.4,3.7,2.2c0.8,0.6,1.7,1.2,2.7,1.6c1.2,0.5,1.7,1.5,2.5,2.4c0.4,0.4,0.1,1-0.2,1.4
		c-0.5,0.6-1,1.2-1.5,1.8c-1.7,1.6-3.4,3.2-5,4.8c-0.4,0.3-0.7,0.7-1,1.1c-0.3,0.3-0.6,0.7-0.9,0.9c-1.4,1-2.8,2.2-4,3.4
		c-0.3,0.3-0.5,0.6-0.9,0.8c-1.6,1-2.7,2.4-3.9,3.8c-0.6,0.7-1.1,1.3-1.9,1.8c-1,0.7-1.8,1.7-2.6,2.6
		C537.6,122.9,537.3,123.2,537,123.5z M478.3,172.8c0,0.1,0,0.2-0.1,0.2C478.2,173,478.3,172.9,478.3,172.8
		c-0.4-0.2-0.8-0.4-1.3-0.6C477.5,173,477.5,173,478.3,172.8z M508.5,85.1c0.6,0.3,0.6,0.3,1.2-0.1C509.1,85,508.8,85,508.5,85.1z
		 M513.7,93.4c0.3-0.2,0.5-0.2,0.6-0.3c0.1-0.1,0.2-0.2,0.4-0.4C514.1,92.6,513.9,92.8,513.7,93.4z M461.3,133.9
		c0.1-0.1,0.2-0.2,0.3-0.3c0,0-0.1-0.2-0.1-0.2c-0.1,0.1-0.2,0.2-0.3,0.3C461.2,133.7,461.3,133.8,461.3,133.9z M483.4,136.2
		c-0.1-0.1-0.1-0.2-0.2-0.3c-0.1,0.1-0.2,0.2-0.2,0.3c0,0.1,0,0.2,0,0.3c0,0,0,0.1,0.1,0.1c0.1,0,0.2-0.1,0.2-0.1
		C483.4,136.4,483.4,136.3,483.4,136.2z M479.5,148.8c-0.1,0.2-0.3,0.3-0.2,0.4c0,0.1,0.2,0.2,0.2,0.3c0.1-0.1,0.2-0.2,0.2-0.3
		C479.8,149.2,479.7,149,479.5,148.8z M469.9,159.9c-0.1-0.1-0.2-0.2-0.3-0.3c0,0.1-0.1,0.2-0.1,0.3c0.1,0.1,0.2,0.2,0.3,0.3
		C469.7,160.1,469.8,160,469.9,159.9z M480.4,175.6c-0.1,0-0.2,0.1-0.3,0.1c0.1,0.1,0.1,0.3,0.2,0.4c0,0,0.2-0.1,0.3-0.2
		C480.6,175.8,480.5,175.7,480.4,175.6z M525.2,110.1C525.2,110.1,525.1,110.1,525.2,110.1c-0.1-0.1-0.2-0.1-0.2-0.1
		c0,0.1,0.1,0.1,0.1,0.2C525.1,110.2,525.1,110.2,525.2,110.1z M495,166.9c0,0,0,0.1,0,0.1c0.1,0,0.1,0,0.2-0.1c0,0,0-0.1-0.1-0.1
		C495.1,166.8,495.1,166.9,495,166.9z M492.9,130.9c0,0,0-0.1,0-0.1c0,0-0.1,0-0.1,0C492.8,130.8,492.8,130.8,492.9,130.9
		C492.8,130.9,492.9,130.9,492.9,130.9z M536.4,115.8c0-0.1,0.1-0.2,0.1-0.3c0-0.1-0.1-0.1-0.2-0.2c0,0.1-0.1,0.2-0.1,0.3
		C536.2,115.7,536.3,115.8,536.4,115.8z M511.8,107c0,0.1-0.1,0.1-0.1,0.2c0,0,0.1,0.1,0.1,0.1c0,0,0.1-0.1,0.1-0.1
		C511.9,107.2,511.8,107.1,511.8,107z M479.1,101.5c0,0-0.1-0.1-0.1-0.1c-0.1,0-0.2,0.1-0.2,0.1c0,0,0.1,0.1,0.1,0.1
		C479,101.6,479,101.5,479.1,101.5z M502.2,88.1l0,0.1l0.1-0.1L502.2,88.1z M468.7,171.1c0,0,0-0.1,0-0.1c0,0-0.1,0-0.1,0
		C468.5,171,468.6,171.1,468.7,171.1C468.6,171.1,468.6,171.1,468.7,171.1z"></path>
	<path class="st0" d="M180.8,151.6c-0.3,0.5-0.5,0.7-0.6,1c-0.8,2.3-2.1,4.5-3.1,6.8c-0.3,0.7-0.7,1.2-1,1.9
		c-1.2,2.6-2.4,5.2-3.5,7.9c-0.1,0.3-0.3,0.6-0.4,0.9c-0.6,2.5-1.8,4.7-2.9,7c-0.6,1.2-1.3,2.4-2.1,3.6c-0.9,1.3-1.6,2.8-2.2,4.3
		c-1.3,3.1-2.5,6.2-3.8,9.4c-0.3,0.7-0.6,1.3-1,1.9c-0.5,0.9-0.9,1.9-1.1,2.9c-0.2,0.8-0.4,1-1.2,1.1c-0.8,0-1.7,0.1-2.5,0
		c-0.8-0.1-1.7-0.1-2.5,0c-2.3,0.3-4.6,0.2-7,0.1c-1.4,0-2.9,0-4.3,0c-3.3,0-6.5,0-9.8,0c-1.6,0-3.2,0-4.8,0.1
		c-0.8,0-1.5,0.2-2.3,0.2c-0.9,0-1.9-0.1-2.8-0.2c-0.5,0-1-0.1-1.5-0.1c0-0.3,0-0.6,0.1-0.9c0.6-1.6,1.3-3.1,2.2-4.6
		c2.7-4.6,5.1-9.4,7.1-14.4c0.9-2.2,1.6-4.4,2.6-6.5c0.9-1.9,1.7-3.9,2.7-5.9c0.8-1.5,1.7-3,2.6-4.4c1.6-2.8,3.3-5.6,4.9-8.5
		c0.3-0.5,0.5-1,0.8-1.4c1.1-1.6,1.8-3.3,2.5-5c0.6-1.4,1.2-2.8,1.8-4.3c0.2-0.4,0.4-0.8,0.6-1.2c0.1-0.2,0.3-0.4,0.4-0.6
		c0.9-2.7,2.4-5.1,3.5-7.7c0.9-2.1,2.2-3.9,3.4-5.9c1-1.8,2.2-3.5,3.1-5.3c0.8-1.5,1.4-3.1,2.1-4.7c0.6-1.3,1.2-2.6,1.9-3.9
		c0.8-1.5,1.8-2.9,2.6-4.4c0.5-0.9,0.9-1.9,1.4-2.8c0.8-1.8,1.6-3.5,2.6-5.2c1.3-2,2.4-4.1,3.5-6.2c0.4-0.8,0.6-1.7,0.9-2.5
		c0.6-1.5,1.3-2.9,1.9-4.4c0.9-2.2,1.9-4.5,2.8-6.7c0.2-0.6,0.6-1,1.1-1.4c0.4-0.2,0.8-0.3,1.2,0c1.1,0.7,2,1.6,2.3,2.9
		c0.2,0.9,0.6,1.8,1,2.6c0.1,0.3,0.2,0.6,0.5,0.9c0.8,0.9,1.2,2.1,1.6,3.2c0.8,2.5,1.9,4.9,3.1,7.3c1,1.9,1.8,3.8,2.7,5.7
		c1.2,2.3,2.3,4.6,3.8,6.8c1.2,1.7,2.2,3.5,3,5.3c0.5,1.1,0.9,2.2,1.4,3.3c0.6,1.3,1.2,2.5,1.8,3.7c0.6,1,1,2.1,1.6,3.1
		c0.7,1.3,1.3,2.5,2,3.8c0.9,1.6,1.7,3.2,2.6,4.8c0.7,1.4,1.5,2.7,2.3,4c0.6,1.1,1.2,2.2,1.6,3.5c0.2,0.7,0.6,1.3,0.9,2
		c1.1,2.8,2.6,5.5,3.9,8.2c0.3,0.6,0.7,1.1,1,1.7c1.3,2,2.5,4,3.8,6c0.1,0.1,0.1,0.3,0.2,0.4c1.2,1.3,1.7,2.9,2.4,4.5
		c0.3,0.8,0.6,1.5,0.7,2.4c0.1,1,0.5,1.8,0.9,2.6c0.5,1.2,1.2,2.4,1.7,3.6c0.8,1.9,1.4,3.8,2.4,5.6c0.7,1.3,1.4,2.5,2.2,3.7
		c1.4,2.3,2.4,4.7,3.4,7.1c0.3,0.9,0.9,1.7,1.3,2.5c0.3,0.5,0.6,0.9,0.8,1.5c0.4,1.2,1,2.2,1.8,3.2c0.2,0.2,0.3,0.4,0.5,0.7
		c0.5,0.8,0.3,1.5-0.4,2c-0.8,0.5-1.6,0.9-2.6,0.7c-1.6-0.3-3.2-0.1-4.8,0.1c-1.8,0.2-3.6,0.1-5.5,0.1c-0.7,0-1.3,0-2,0
		c-0.7,0-1.3-0.1-2-0.2c-1.3-0.2-2.5-0.4-3.8-0.6c-0.3-0.1-0.7,0-1,0c-0.8,0-1.5,0-2.3,0.2c-1.2,0.2-2.3,0-3.5-0.1
		c-1.2-0.1-2.4,0-3.6,0.1c-1,0.1-2,0.3-3,0.4c-0.9,0.1-1.8,0-2.6-0.4c-0.2-0.1-0.5-0.2-0.8-0.3c-0.6-0.2-1.1-0.5-1.3-1.2
		c-0.2-0.6-0.5-1.1-0.8-1.6c-0.9-1.9-1.8-3.8-2.7-5.7c-0.8-1.7-1.5-3.3-2.1-5.1c-0.2-0.7-0.6-1.3-0.9-2c-0.9-2-1.9-4-2.5-6.1
		c-0.7-2.2-1.5-4.4-2.4-6.5c-1.3-3.2-2.6-6.5-3.9-9.7c-1.5-3.4-3-6.8-4.5-10.1C181.1,152.1,181,151.9,180.8,151.6z M184.3,151.6
		c0,0,0,0.1,0,0.1C184.3,151.7,184.3,151.6,184.3,151.6c0-0.1-0.1-0.2-0.2-0.2c0,0-0.1,0-0.1-0.1c0,0.1,0,0.3,0,0.3
		C184.1,151.6,184.2,151.6,184.3,151.6z M189.9,119.4c0,0.1-0.1,0.2-0.1,0.3c0,0,0,0.1,0.1,0.1C189.9,119.7,189.9,119.6,189.9,119.4
		c-0.1-0.1-0.1-0.3-0.2-0.4c0,0-0.1,0-0.1,0c0,0.1-0.1,0.2,0,0.3C189.7,119.3,189.8,119.4,189.9,119.4z M138.4,180.8
		c-0.6,0.2-0.6,0.2-0.6,1.1C138,181.4,138.2,181,138.4,180.8c0-0.1,0.1-0.2,0.1-0.2c0,0-0.1,0-0.1,0
		C138.4,180.6,138.4,180.7,138.4,180.8z M164.4,124.1c0.8-0.5,0.8-0.5,0.8-1.4C164.9,123.3,164.7,123.7,164.4,124.1
		c0,0.1,0,0.2-0.1,0.3c0,0,0.1,0,0.1,0.1C164.4,124.3,164.4,124.2,164.4,124.1z M167.1,126.1c0.8-0.3,0.9-1.2,1.3-1.8
		c0.1-0.1,0.3-0.4-0.1-0.7C167.9,124.5,167.5,125.4,167.1,126.1c0,0.1-0.1,0.2-0.1,0.2c0,0,0,0.1,0.1,0.1
		C167.1,126.4,167.1,126.3,167.1,126.1z M182.8,95.7c0.1,1.1-0.1,2,0.9,2.7C183.8,96.9,183.6,96.1,182.8,95.7z M185.6,116
		c-0.3,0.9-0.3,0.9,0.4,1.9C186.3,117.1,186.3,117.1,185.6,116z M126.9,196.9c-0.3,0.3-0.5,0.5-0.6,0.7c-0.1,0.2,0,0.5,0.1,0.6
		c0.2,0.1,0.5,0.2,0.7,0.1c0.1,0,0.3-0.4,0.3-0.5C127.3,197.5,127.1,197.3,126.9,196.9z M139.9,169.1c-1,1.2-1,1.2-0.8,2
		C139.8,170.7,139.7,170,139.9,169.1z M163.2,182.4c-0.7,0.6-0.7,0.6-0.8,1.6C163,183.6,163.2,183.1,163.2,182.4z M177.1,107.4
		c-0.2-0.2-0.4-0.3-0.5-0.4c-0.1,0.2-0.3,0.3-0.4,0.5c0,0.3,0.2,0.3,0.5,0.3C176.8,107.7,176.9,107.5,177.1,107.4z M185.7,101.2
		c-0.2,0.6-0.2,1,0.4,1.4C185.9,102.1,185.8,101.7,185.7,101.2z M182.5,139.7c0.1,0,0.2,0,0.4,0c0-0.3,0-0.5,0-0.8
		c0-0.1-0.2-0.2-0.2-0.2c-0.1,0-0.2,0.1-0.2,0.2C182.4,139.3,182.4,139.5,182.5,139.7z M181.6,105.1c0.1,0,0.1,0,0.2,0
		c0-0.2,0-0.4,0-0.7c0,0-0.2-0.1-0.3-0.1c-0.1,0-0.1,0.2-0.1,0.3C181.4,104.7,181.5,104.9,181.6,105.1z M196.3,144.7
		c0,0.2-0.1,0.4-0.1,0.5c0,0.1,0.2,0.2,0.3,0.3c0-0.1,0.1-0.3,0.1-0.4C196.6,145,196.4,144.9,196.3,144.7z M202.4,168.9
		c-0.4,0.5-0.1,0.7,0,0.9c0.1,0,0.2,0,0.3,0c0-0.1,0-0.2,0-0.3C202.6,169.4,202.5,169.2,202.4,168.9z M178.3,113.5
		c0,0-0.1,0.1-0.1,0.1c0,0.3,0.2,0.6,0.5,0.5c0,0,0.1-0.1,0.1-0.1c0.1-0.3-0.1-0.5-0.4-0.6C178.4,113.4,178.4,113.5,178.3,113.5z
		 M146.2,197.8c-0.2-0.2-0.3-0.4-0.5-0.5c0,0-0.3,0.2-0.3,0.3c0,0.3,0.2,0.5,0.5,0.5C146,198,146.1,197.9,146.2,197.8z M132.8,196.8
		c-0.2,0-0.3,0-0.4-0.1c0,0.1,0,0.2,0,0.2c0.1,0.1,0.2,0.1,0.3,0.1C132.6,197.1,132.7,196.9,132.8,196.8z M198.4,189.9
		c0.3,0.4,0.4,0.5,0.5,0.6c0-0.1,0.1-0.2,0.1-0.2C198.8,190.2,198.7,190.2,198.4,189.9z M215.3,153.8c0,0-0.1,0-0.1,0
		c0,0.1,0,0.2,0.1,0.2c0,0,0.1,0,0.1,0C215.4,154,215.4,153.9,215.3,153.8z M200.2,188.7c0,0-0.1,0.1-0.1,0.1c0,0.2,0.1,0.4,0.2,0.6
		c0,0,0.2,0,0.3,0c0.2-0.2,0.1-0.4-0.1-0.5C200.4,188.8,200.3,188.8,200.2,188.7z M179.2,128.4c-0.1,0.1-0.1,0.1-0.2,0.2
		c0.1,0.1,0.1,0.2,0.2,0.2c0,0,0.1-0.1,0.2-0.2C179.3,128.6,179.3,128.5,179.2,128.4z M153.4,181.2c-0.1,0-0.2,0-0.2,0
		c0,0,0,0.1,0,0.1C153.3,181.3,153.3,181.3,153.4,181.2z M172.6,120.5c0.2-0.2,0.3-0.3,0.3-0.4c0-0.1-0.1-0.3-0.1-0.2
		c-0.1,0-0.3,0.1-0.3,0.2C172.5,120.1,172.6,120.3,172.6,120.5z M190.2,138.1c0.1,0.1,0.3,0.2,0.4,0.2c0,0,0.1-0.1,0.1-0.1
		c-0.1-0.1-0.1-0.2-0.2-0.3C190.4,138,190.3,138,190.2,138.1z M190.7,158.2c0-0.2,0-0.4-0.1-0.6c-0.1,0-0.2,0-0.3,0.1
		C190.3,157.9,190.4,158.1,190.7,158.2z M225.5,198.7c0.1-0.1,0.2-0.1,0.3-0.1c-0.1-0.1-0.1-0.3-0.2-0.3c-0.1,0-0.2,0.1-0.3,0.2
		C225.4,198.5,225.5,198.6,225.5,198.7z M179.6,97.4c0,0.1-0.1,0.2-0.1,0.3c0,0.1,0.1,0.2,0.1,0.2c0-0.1,0.1-0.2,0.1-0.3
		C179.8,97.5,179.7,97.4,179.6,97.4z M177.4,105c0-0.1,0-0.2,0-0.3c-0.1,0-0.2,0.1-0.2,0.1c0,0.1,0,0.2,0.1,0.3
		C177.4,105.1,177.4,105.1,177.4,105z M141,197.5c-0.1,0-0.2-0.1-0.3-0.1c0,0.1-0.1,0.2-0.1,0.3c0,0.1,0.2,0.1,0.2,0.1
		C140.9,197.7,140.9,197.6,141,197.5z M161.2,180.2c-0.1-0.1-0.1-0.1-0.2-0.2c0,0.1-0.1,0.2-0.1,0.2c0,0.1,0.1,0.2,0.1,0.2
		C161.1,180.4,161.2,180.3,161.2,180.2z M217.5,195.2c0,0,0.1,0,0.1,0c0,0-0.1-0.1-0.1-0.1C217.5,195.1,217.5,195.1,217.5,195.2z
		 M142.2,195.2c-0.1,0-0.1-0.1-0.2-0.1c0,0-0.1,0.1-0.1,0.1c0,0.1,0.1,0.2,0.1,0.2C142.1,195.3,142.2,195.2,142.2,195.2z
		 M185.4,136.4c0,0-0.1-0.1-0.1-0.1c0,0-0.1,0.1-0.1,0.1c0,0,0.1,0.1,0.1,0.1C185.4,136.5,185.4,136.5,185.4,136.4z M179.9,118
		c0,0,0,0.1-0.1,0.1c0.1,0,0.1,0,0.2-0.1C180,118.1,180,118.1,179.9,118z M160.5,148.8c0,0-0.1-0.1-0.1-0.1c0,0.1-0.1,0.2-0.1,0.2
		c0,0,0.1,0.1,0.1,0.1C160.4,148.9,160.4,148.9,160.5,148.8z M175.2,96.5c0,0,0,0.1,0,0.1c0,0,0.1,0,0.1,0c0-0.1,0-0.1-0.1-0.2
		C175.2,96.4,175.2,96.4,175.2,96.5z M143.4,196.1c0,0,0,0.1,0,0.1c0,0,0.1,0,0.1,0c0-0.1,0-0.1,0-0.2
		C143.5,196.1,143.4,196.1,143.4,196.1z M152.4,195.4c0,0.1,0,0.2,0,0.2c0,0,0.1-0.1,0.1-0.1C152.5,195.5,152.4,195.4,152.4,195.4z
		 M220.8,184.7l0.1,0.1l0-0.1L220.8,184.7z"></path>
	<path class="st0" d="M403.3,151.4c-0.4,0.6-0.7,0.9-0.8,1.2c-0.2,1-1,1.8-1.1,2.9c-0.1,0.8-0.4,1.6-1.1,2.2c-1.2,2.8-3,5.2-4,8.2
		c-0.3,0.8-0.6,1.5-1,2.3c-1.6,3.3-2.6,6.8-4,10.2c-0.7,1.7-1.4,3.4-2.2,5c-0.8,1.5-1.3,3-2,4.5c-1.2,2.5-2.5,5-3.7,7.6
		c-0.5,1-0.7,2.2-1.1,3.3c-0.1,0.4-0.3,0.8-0.4,1.3c-0.3,0.1-0.5,0.2-0.8,0.2c-2.1,0.3-4.2,0.5-6.3,0.4c-0.2,0-0.5,0-0.7,0
		c-2.2,0.5-4.5,0.3-6.8,0.3c-1.1,0-2.3-0.3-3.4-0.5c-0.4-0.1-0.8-0.1-1.2-0.1c-2.4,0.4-4.7,0.1-7.1,0.2c-1.3,0.1-2.7,0-4,0.2
		c-2.1,0.3-4.2,0.1-6.3,0.2c-0.6,0-1.1-0.2-1.6-0.7c0.1-0.4,0.1-0.8,0.3-1.2c0.9-2.1,1.8-4.2,2.7-6.2c0.9-2.1,2-4,3.1-6
		c0.9-1.8,1.6-3.6,2.4-5.5c0.4-0.8,0.8-1.6,1.2-2.4c0.5-0.9,0.9-1.7,1.2-2.7c0.3-0.9,0.8-1.8,1.2-2.7c0.9-1.8,1.6-3.7,2.6-5.5
		c1.4-2.7,2.9-5.3,4.5-7.9c2.7-4.5,5.5-9.1,7.8-13.8c0.5-1,0.9-2,1.4-3c1-2,2-3.9,3-5.9c1.2-2.5,2.4-5,3.7-7.4
		c0.9-1.8,1.8-3.5,2.8-5.3c1-1.7,2.1-3.4,3.2-5c0.9-1.2,1.7-2.4,2.5-3.7c2-3,3.3-6.2,4.7-9.5c0.8-1.9,1.6-3.9,2.3-5.8
		c0.4-0.9,0.6-1.9,0.9-2.8c1-2.8,2.3-5.5,3.9-8c1.1-1.7,1.8-3.5,2.7-5.3c0.2-0.3,0.3-0.7,0.5-1c0.6-1.1,1.7-1.3,2.5-0.3
		c0.5,0.6,0.9,1.4,1.3,2.1c0.6,1.1,1.2,2.1,1.7,3.2c1,2.1,1.9,4.3,3,6.4c1.5,3,3,6,4.6,9c0.3,0.6,0.6,1.3,0.9,2
		c0.8,1.9,1.7,3.7,2.7,5.5c0.4,0.8,0.7,1.7,1.2,2.5c0.9,1.8,1.8,3.5,2.7,5.3c1,1.9,1.9,3.9,2.8,5.8c0.8,1.5,1.6,3,2.4,4.5
		c0.2,0.4,0.5,0.9,0.7,1.3c0.6,1.2,1.2,2.3,2,3.5c0.9,1.3,1.6,2.8,2.3,4.2c0.4,0.7,0.8,1.5,1.1,2.2c1.6,3.1,3,6.2,4.3,9.3
		c0.7,1.6,1.5,3.2,2.2,4.8c0.5,1,1,2.1,1.5,3.1c0.6,1.1,1.1,2.3,1.7,3.4c1.1,2,2.3,4,3.4,6c0.4,0.6,0.8,1.2,1.2,1.8
		c0.9,1.4,1.6,2.9,2.3,4.4c1,2.3,2.1,4.5,3.2,6.7c0.5,0.9,1.1,1.8,1.6,2.7c0.7,1.1,1.3,2.3,2,3.5c0.1,0.1,0.1,0.2,0.2,0.3
		c0.9,2.4,2.1,4.7,2.8,7.2c0.2,0.8,0.6,1.4,1.1,2c1,1.2,1.7,2.6,1.5,4.2c0,0.2-0.1,0.3-0.1,0.5c0,0.1-0.1,0.2-0.2,0.3
		c-1.3,0.2-2.7,0-4.1-0.2c-0.9-0.1-1.9-0.2-2.8,0c-1.4,0.2-2.9,0.1-4.3,0.1c-2.3,0-4.5,0.2-6.7,0.6c-2.2,0.4-4.4,0.5-6.6,0.4
		c-1.3-0.1-2.6-0.2-4-0.3c-1.2-0.1-2.3-0.1-3.5-0.1c-1.5-0.1-3-0.2-4.4-0.9c-0.3-0.1-0.7-0.2-1-0.1c-0.8,0.2-1.1-0.2-1.4-0.8
		c-0.4-0.9-0.8-1.8-1.2-2.7c-1.2-2.8-2.5-5.6-3.6-8.4c-1.1-2.6-2.2-5.3-3.2-8c-0.1-0.2-0.1-0.3-0.2-0.5c-1.5-2.2-2.3-4.8-3.3-7.2
		c-1.2-2.8-2.6-5.5-4.1-8.1c-1.3-2.4-2.4-4.8-3.1-7.5c-0.4-1.7-1.1-3.3-1.7-5C403.8,152,403.6,151.8,403.3,151.4z M415.7,122.5
		c0.3-1.2,0.3-1.2-0.1-1.2C415.6,121.7,415.6,122.1,415.7,122.5z M403.4,137.8c-0.7,0.1-0.8,0.3-0.6,0.8
		C402.9,138.4,403.1,138.2,403.4,137.8z M353.3,189.8c-0.2-0.1-0.3-0.2-0.4-0.2c-0.1,0.1-0.2,0.2-0.3,0.3c0,0,0.1,0.2,0.2,0.2
		C352.9,190,353.1,189.9,353.3,189.8z M349.5,195.7c0-0.1-0.1-0.1-0.1-0.2c0,0-0.1,0.1-0.1,0.1c0,0.1,0.1,0.1,0.1,0.2
		C349.4,195.8,349.4,195.7,349.5,195.7z M398.9,151.3c0,0,0-0.1,0-0.1c-0.1,0-0.2,0-0.3,0c0,0,0,0.1,0,0.2
		C398.7,151.4,398.8,151.4,398.9,151.3z M399,104c0,0-0.1-0.1-0.1-0.1c0,0.1-0.1,0.2-0.1,0.3c0,0,0.1,0.1,0.1,0.1
		C398.9,104.2,398.9,104.1,399,104z M441.9,191.8c-0.1-0.1-0.1-0.2-0.2-0.2c-0.1,0.1-0.2,0.2-0.2,0.2c0,0.1,0.1,0.2,0.2,0.3
		C441.8,192,441.9,191.9,441.9,191.8z M423.2,129c0,0,0-0.1,0-0.1c0,0.1,0,0.1-0.1,0.2C423.1,129,423.2,129,423.2,129z M413.2,108.7
		c0,0,0-0.1-0.1-0.1c0,0-0.1,0.1-0.1,0.1C413.1,108.7,413.1,108.8,413.2,108.7C413.2,108.8,413.2,108.8,413.2,108.7z M436.3,197.8
		c0,0,0.1,0,0.1,0c0,0,0-0.1,0-0.1c0,0-0.1,0-0.1,0C436.3,197.8,436.3,197.8,436.3,197.8z"></path>
	<path class="st0" d="M1119.3,111.3c-0.5,1.4-0.1,2.8-0.3,4.1c-0.2,1.3-0.1,2.6-0.1,3.8c0,1.3,0,2.7,0,4c0,1.3,0,2.5,0,3.9
		c0.4,0.1,0.8,0.2,1.2,0.2c2.3,0,4.6-0.1,7-0.1c1.5,0,3.1,0.1,4.6,0.1c1.2,0,2.4-0.1,3.7-0.2c1.4-0.1,2.8-0.1,4.2-0.1
		c3.4-0.1,6.7-0.2,10.1-0.2c0.7,0,1.5-0.1,2.2-0.1c0.7,0,1.5,0.2,2,0.8c0.4,4.8,0.2,23.9-0.4,26.2c-1.2,0.2-2.4,0.5-3.5,0.7
		c-0.4,0.1-0.7,0.1-1.1,0c-2-0.4-4-0.3-6-0.3c-3.6,0-7.2,0.2-10.8-0.1c-2.9-0.2-5.9-0.1-8.8-0.1c-1,0-2,0.2-2.9,0.3
		c-0.4,0-0.7,0.2-1,0.4c-0.4,0.7-0.5,1.3-0.5,2c0,0.7,0,1.5,0,2.2c0.2,3.8-0.3,7.6-0.3,11.4c0,0.3,0,0.6,0.1,0.9
		c1.2,0.6,2.5,0.5,3.6,0.4c1.1-0.1,2.2-0.2,3.3-0.2c1.9,0,3.9,0.2,5.8,0.2c1.8,0,3.5-0.1,5.3-0.1c3.1-0.1,6.1-0.4,9.2-0.5
		c1.6-0.1,3.3,0,4.9,0.2c2.1,0.3,4.3,0.2,6.4,0c1.1-0.1,2.2-0.1,3.3-0.1c0.8,0,1.3,0.4,1.5,1.1c0.1,0.4,0.2,0.8,0.2,1.3
		c0.1,1.5,0.1,3.1,0.1,4.6c0.1,4.1-0.2,8.2-0.5,12.3c0,0.8-0.3,1.6-0.3,2.4c-0.1,1.3,0,2.6,0,3.8c0,0.5,0,1.1-0.1,1.6
		c-0.1,0.7-0.7,1.1-1.3,1c-0.8-0.2-1.6,0-2.4,0.1c-1.5,0.2-3,0.4-4.6,0.5c-0.5,0-1,0-1.4-0.2c-2.3-0.8-4.7-0.7-7.1-0.6
		c-2.9,0.1-5.7,0.2-8.6,0.4c-2.6,0.1-5.2,0.3-7.9,0.5c-1.5,0.1-2.9,0-4.4,0.1c-1.2,0.1-2.4,0.3-3.6,0.3c-2.9,0.1-5.8,0.6-8.8,0.1
		c-1.1-0.2-2.2-0.2-3.3-0.5c-1.5-0.3-2.9-0.2-4.4-0.2c-1.5,0-3-0.1-4.6-0.2c-1,0-2.1,0.1-3.1,0.1c-1.9,0.1-3.8,0.2-5.7,0.3
		c-0.2,0-0.4,0-0.5-0.1c-1.4-0.4-2.9-0.4-4.4-0.5c-0.3,0-0.6,0-1-0.1c0-1.2-0.1-2.4-0.1-3.5c0-0.6,0-1.2-0.1-1.8
		c-0.4-3.2,0-6.5,0.2-9.7c0.1-1.5,0.1-3.1-0.1-4.6c-0.4-2.3-0.3-4.6-0.3-7c0-2.7,0.1-5.5,0.1-8.2c0-1.4,0.2-2.8,0.2-4.2
		c0-2,0-4-0.2-6.1c-0.1-2.3-0.1-4.6,0.2-6.9c0.5-4,0.4-7.9,0.2-11.9c-0.1-2.4-0.3-4.9-0.5-7.3c-0.1-1.6-0.3-3.3-0.4-4.9
		c0-0.5-0.1-1-0.2-1.4c0-0.4-0.1-0.8-0.1-1.3c0.1-2.2,0.2-4.4,0.3-6.6c0-0.9,0.2-1.7,0.3-2.6c0.1-2.8,0.1-5.5,0.1-8.3
		c0.1-3.5,0.1-7.1,0.2-10.6c0.1-2.5,0.3-5,0.4-7.5c0.1-1,0.3-1.3,1.3-1.3c0.2,0,0.4,0,0.6,0c2.9,0.1,5.7,0.2,8.6,0.2
		c4.1-0.1,8.2-0.1,12.3-0.6c0.7-0.1,1.3-0.2,2-0.1c3.3,0.4,6.6,0.2,9.9,0.2c2.9,0,5.9,0,8.8,0.1c2,0,3.9-0.1,5.9,0.2
		c0.8,0.1,1.6-0.1,2.4-0.1c3.3-0.1,6.6-0.1,9.9-0.1c2.9-0.1,5.7-0.2,8.6-0.4c1.4-0.1,2.8-0.1,4.2,0.2c0.5,0.1,1.1,0.1,1.6,0.2
		c0.9,0.1,1.2,0.3,1.3,1.3c0.1,0.5,0.1,1.1,0.1,1.6c0.1,1.5,0.2,2.9,0.4,4.4c0.1,1.5,0,2.9-0.2,4.4c-0.3,2.3-0.6,4.6-0.9,6.9
		c-0.3,2.4-0.5,4.9-0.4,7.3c0,0.3,0,0.6,0,0.9c-0.1,0.6-0.6,1.1-1.2,1.2c-0.4,0.1-0.9,0-1.3,0.1c-1,0.1-1.9,0.3-2.9,0.3
		c-0.7,0.1-1.3,0.1-2,0.1c-1.3-0.1-2.7-0.2-4-0.3c-3.5-0.4-7-0.3-10.5-0.4c-3,0-6,0.1-9,0.2c-2.9,0.1-5.7,0.1-8.6,0.1
		C1120.6,111.1,1119.9,111.2,1119.3,111.3z M1097,175.1c0,0.1,0.1,0.2,0.1,0.3C1097.1,175.3,1097,175.2,1097,175.1
		c-0.2-0.2-0.3-0.5-0.4-0.7c-0.1-0.1-0.1-0.2-0.2-0.3c0,0.1-0.1,0.1-0.1,0.2c0.1,0,0.2,0,0.3,0C1096.6,174.7,1096.6,175,1097,175.1z
		 M1137.8,175.8c-0.1,0.1-0.2,0.2-0.3,0.2c0,0-0.1,0.1-0.1,0.1c0.1,0,0.3,0,0.3,0C1137.8,176.1,1137.8,175.9,1137.8,175.8
		c0,0,0.1,0,0.1,0.1C1137.9,175.8,1137.9,175.8,1137.8,175.8z M1114,148.5c-0.2-0.5-0.6-0.5-0.9-0.4c-0.3,0.1-0.4,0.3-0.3,0.5
		c0,0.3,0.3,0.5,0.6,0.4C1113.6,148.9,1113.8,148.7,1114,148.5z M1122.8,151.9c1.1,0,1.1,0,1.5-0.5
		C1123.9,151.5,1123.6,151.6,1122.8,151.9z M1150.8,144.9c-0.4-0.4-0.6-0.6-0.9-0.7c-0.2-0.1-0.4-0.2-0.7-0.3
		C1149.3,144.7,1149.7,145,1150.8,144.9z M1151.6,178.5c-0.5-0.6-0.8-0.9-1.3-0.5c0.1,0.1,0.2,0.3,0.4,0.3
		C1150.8,178.4,1151,178.4,1151.6,178.5z M1121.7,193.6c0,0.1,0,0.1,0,0.2c0.2,0,0.4-0.1,0.6-0.1c0-0.1-0.1-0.3-0.1-0.3
		C1122,193.6,1121.8,193.6,1121.7,193.6z M1131.5,178.3c-0.1-0.2-0.2-0.4-0.2-0.4c-0.2,0.1-0.4,0.1-0.6,0.2c0,0,0,0.2,0,0.3
		C1131,178.4,1131.2,178.3,1131.5,178.3z M1140.5,179.2c-0.2,0.2-0.3,0.2-0.3,0.3c-0.1,0.2,0.3,0.5,0.6,0.4c0.1,0,0.2-0.1,0.2-0.2
		C1140.9,179.5,1140.7,179.3,1140.5,179.2z M1152.3,183c-0.2,0.2-0.3,0.3-0.4,0.4c0.2,0.1,0.3,0.2,0.5,0.3c0.1,0,0.2-0.2,0.3-0.3
		C1152.6,183.3,1152.5,183.2,1152.3,183z M1118.9,188.6c0.1-0.1,0.2-0.1,0.3-0.2c-0.1-0.1-0.1-0.2-0.2-0.2c-0.1,0-0.2,0.1-0.3,0.1
		C1118.7,188.4,1118.8,188.5,1118.9,188.6z M1115.1,189c-0.3-0.1-0.5-0.2-0.6-0.2c-0.1,0-0.2,0.1-0.3,0.1c0.1,0.1,0.2,0.2,0.3,0.2
		C1114.6,189.2,1114.8,189.1,1115.1,189z M1142,142.7c0,0,0-0.1-0.1-0.1c-0.1,0-0.2,0-0.3,0c0,0.1,0,0.2,0.1,0.2
		C1141.8,142.8,1141.9,142.8,1142,142.7z M1119.7,175c-0.1,0-0.2-0.1-0.3-0.1c-0.1,0-0.2,0.1-0.2,0.2c0.1,0,0.2,0.1,0.3,0.1
		C1119.5,175.2,1119.6,175.1,1119.7,175z M1142.8,172.9c-0.1,0-0.2-0.1-0.2-0.1c0,0-0.1,0-0.1,0.1c0.1,0.1,0.1,0.1,0.2,0.2
		C1142.7,173,1142.7,172.9,1142.8,172.9z M1087.4,86.4c-0.1-0.1-0.2-0.2-0.4-0.3c0,0-0.2,0.2-0.2,0.2c0.1,0.1,0.2,0.2,0.3,0.3
		C1087.2,86.6,1087.3,86.5,1087.4,86.4z M1096.3,107.9c0,0,0.1,0,0.1,0c0,0,0-0.1,0-0.2c-0.1,0-0.1,0-0.2,0.1
		C1096.3,107.8,1096.3,107.9,1096.3,107.9z M1087.6,130.1c0-0.1,0-0.1,0-0.2c0,0.1-0.1,0.1-0.1,0.2
		C1087.6,130.1,1087.6,130.1,1087.6,130.1z M1098.2,155.2c0,0.1,0,0.2,0,0.3c0,0,0.1-0.1,0.1-0.1
		C1098.3,155.3,1098.3,155.2,1098.2,155.2z M1159.9,90.7c0,0-0.1,0.1-0.1,0.1c0,0,0,0.1,0.1,0.1c0,0,0.1-0.1,0.1-0.1
		C1160,90.8,1160,90.7,1159.9,90.7z M1101.6,172.9c0,0-0.1-0.1-0.1-0.1c0,0.1-0.1,0.2-0.1,0.3c0,0,0.1,0.1,0.1,0.1
		C1101.6,173.1,1101.6,173,1101.6,172.9z M1099.5,85.1c0,0,0-0.1,0-0.1c0,0-0.1,0-0.2,0c0,0.1,0,0.2,0.1,0.2
		C1099.4,85.1,1099.4,85.1,1099.5,85.1z M1104.1,195.9c0,0-0.1,0-0.1-0.1c0,0.1,0,0.1,0,0.2c0,0,0.1,0,0.1,0
		C1104.1,196,1104.1,196,1104.1,195.9z"></path>
	<path class="st0" d="M784.5,159.5c0.8,0.1,1.5,0.4,2,0.8c1.4,1.1,2.6,2.4,3.6,3.8c0.5,2,2.2,3.2,2.9,5c0.6,1.5,2,2.2,3.2,3.3
		c0.2,0.2,0.4,0.3,0.6,0.4c1.6,0.8,2.7,2.2,3.9,3.5c0.4,0.4,0.8,0.8,1.2,1.2c1.4,1.3,2.8,2.5,4.2,3.7c0.2,0.2,0.3,0.4,0.5,0.6
		c-0.1,1-0.6,1.9-1.3,2.5c-0.9,0.8-1.9,1.6-2.8,2.4c-2.2,2-4.2,4.1-6.4,6c-1.3,1.2-2.6,2.4-4.4,2.9c-0.5,0.1-0.9,0.4-1.3,0.6
		c-2.8,1.8-5.9,3-8.9,4.2c-1.1,0.5-2.3,0.9-3.5,1.1c-0.9,0.2-5.6,0.6-6.4,0.5c-1.4-0.2-2.8-0.1-4.2,0.3c-1.4,0.4-2.8,0.4-4.1-0.2
		c-1.9-0.8-3.8-0.7-5.8-0.7c-1.5,0-2.9-0.2-4.3-0.7c-0.6-0.2-1.2-0.3-1.8-0.3c-0.7,0-1.3-0.1-2-0.2c-2.1-0.5-4.2-1.2-6.4-1.7
		c-1.3-0.4-2.6-0.6-3.9-1.1c-2.1-0.7-4-1.9-5.6-3.4c-0.9-0.9-1.7-1.8-2.7-2.4c-0.2-0.1-0.3-0.2-0.4-0.4c-2.3-2.6-5.2-4.4-8-6.4
		c-1-0.7-2.1-1.4-3.2-2.2c-1.1-0.8-1.8-2-2.5-3.2c-1.1-1.9-2.1-3.8-3.2-5.8c-0.2-0.3-0.4-0.6-0.6-0.9c-0.9-1.4-1.8-2.8-2.5-4.3
		c-0.5-1.2-1.3-2.4-2-3.5c-0.5-0.7-0.8-1.5-1-2.3c-0.5-2-1.1-4-1.6-6c-0.3-1.1-0.4-2.2-0.6-3.2c-0.4-2.4-0.8-4.8-1.3-7.2
		c-0.4-1.9-0.3-3.9-0.4-5.8c0-1,0-2.1,0-3.1c0-2.2,0.2-4.4,0.7-6.5c0.4-1.4,0.4-2.9,0.8-4.3c0.5-2,0.9-4,2.1-5.8
		c0.8-1.2,1.5-2.5,2.3-3.8c2-3.1,4-6.1,5.7-9.4c1.4-2.8,3.3-5.3,5-7.9c0.5-0.8,1-1.5,1.6-2.2c1.3-1.6,2.9-2.8,4.7-3.7
		c0.3-0.2,0.7-0.3,1-0.5c3-2.3,6.5-4,9.7-6c0.9-0.5,1.9-0.8,2.9-1.1c2.4-0.7,4.8-1.4,7.2-2.1c0.9-0.3,1.8-0.5,2.7-0.7
		c2.5-0.5,4.9-0.9,7.4-1.4c1.9-0.4,3.8-0.5,5.7-0.5c0.4,0,0.9,0,1.3-0.1c1.6-0.3,3.2-0.1,4.7,0.4c0.3,0.1,0.7,0.1,1.1,0.2
		c2,0.3,4,0.5,6,0.8c1.1,0.2,2.1,0.5,3.2,0.7c1.4,0.2,2.7,0.9,4.1,0.8c0.4,0,0.7,0.1,1.1,0.2c0.2,0.1,0.5,0.2,0.7,0.3
		c3.3,0.6,6,2.3,9,3.6c0.3,0.1,0.5,0.3,0.8,0.5c1.7,1.2,3.4,2.4,5.1,3.6c0.2,0.2,0.5,0.4,0.8,0.5c1.5,0.8,2.6,2,3.7,3.2
		c0.4,0.4,0.9,0.8,1.4,1.2c0.7,0.6,0.8,1.4,0.1,2.1c-1.9,2-3.5,4.2-5.3,6.3c-0.4,0.5-0.9,1-1.4,1.4c-1.3,1.1-2.5,2.4-3.6,3.7
		c-1.4,1.7-2.9,3.3-4.6,4.8c-2.4,2.1-4.6,4.3-7,6.5c-1,0.9-1.3,1-2.4,0.4c-0.7-0.4-1.4-0.7-1.9-1.4c-1-1.3-2.3-2.2-3.7-3
		c-0.7-0.4-1.6-0.7-2.4-0.9c-2.6-0.4-5.1-1.2-7.7-1.7c-0.4-0.1-0.8-0.2-1.3-0.2c-2.4,0.2-4.8,0.3-7.1,0.6c-1.3,0.1-2.5,0.5-3.8,0.8
		c-1.4,0.4-2.5,1.3-3.5,2.3c-0.8,0.7-1.5,1.5-2.3,2.1c-1.2,1-1.9,2.4-2.8,3.6c-1,1.4-1.9,2.8-2.9,4.2c-1.5,2.1-2.4,4.4-2.7,6.9
		c-0.1,1-0.2,2.1-0.5,3.1c-0.3,1-0.3,2.1-0.1,3.1c0.3,1.6,0.3,3.3,0.4,4.9c0.1,1.7,0.3,3.4,0.6,5.1c0.4,1.9,1.2,3.6,2.4,5.1
		c1.1,1.4,2.4,2.8,3.5,4.2c1.9,2.6,4.5,4,7.6,4.8c1.6,0.4,3.3,1,4.9,1.6c1.2,0.4,2.5,0.6,3.8,0.4c2.5-0.4,5.1-0.7,7.6-1.1
		c1.5-0.2,3-0.6,4.4-1.2c0.8-0.3,1.6-0.6,2.4-0.8c1.6-0.2,2.8-1.1,4-2.1c1.1-0.9,2-1.9,3.1-2.9C784,159.9,784.3,159.7,784.5,159.5z
		 M712.3,160.8c0,0.1,0,0.2,0.1,0.3c0.1,0,0.1-0.1,0.2-0.1C712.4,161,712.3,160.9,712.3,160.8c-0.1-0.3-0.1-0.5-0.1-1
		C711.8,160.4,712.1,160.6,712.3,160.8z M738.5,90.8c-0.2-0.1-0.4-0.2-0.4-0.2c-0.2,0.1-0.3,0.3-0.5,0.4c0.1,0.1,0.3,0.2,0.3,0.2
		C738.2,91.1,738.3,91,738.5,90.8z M762.1,90.5c0,0-0.1-0.1-0.1-0.1c-0.2,0-0.4,0.1-0.6,0.1c0,0.1,0.1,0.3,0.1,0.3
		c0.2,0,0.4-0.1,0.6-0.1C762.1,90.6,762.1,90.5,762.1,90.5z M780.1,117.4c-0.2-0.1-0.2-0.2-0.3-0.2c-0.2,0-0.3,0.1-0.5,0.2
		c0.1,0.1,0.1,0.2,0.2,0.2C779.7,117.6,779.9,117.5,780.1,117.4z M759.1,109c0.1-0.1,0.3-0.2,0.4-0.3c0,0-0.1-0.2-0.2-0.2
		c-0.1,0.1-0.3,0.2-0.4,0.3C759,108.8,759.1,108.9,759.1,109z M764.6,180.4c0.2-0.2,0.3-0.3,0.5-0.5c-0.1-0.1-0.2-0.2-0.2-0.2
		c-0.1,0.1-0.3,0.2-0.4,0.3C764.5,180,764.6,180.2,764.6,180.4z M782.7,95.7c-0.1,0-0.2-0.1-0.3-0.1c0,0-0.1,0.1-0.1,0.2
		c0.1,0,0.1,0.1,0.2,0C782.5,95.8,782.6,95.7,782.7,95.7z M781.2,91.6c0-0.1,0-0.1,0-0.1c-0.1,0-0.2,0-0.3,0c0,0.1,0,0.1,0,0.1
		C781,91.6,781.1,91.6,781.2,91.6z M746.1,194c0,0.1-0.1,0.2-0.1,0.3c0.1,0,0.2,0.1,0.3,0.1c0.1,0,0.1-0.2,0.1-0.3
		C746.3,194.1,746.2,194,746.1,194z M764.9,188c0,0.1,0,0.2-0.1,0.3c0.1,0,0.2,0,0.2,0c0,0,0-0.1,0-0.1
		C765.1,188.1,765,188.1,764.9,188z M791.3,102.3c0,0-0.1-0.1-0.1-0.1c-0.1,0-0.2,0.1-0.3,0.1c0.1,0,0.2,0.1,0.3,0.1
		C791.3,102.4,791.3,102.3,791.3,102.3z M713.6,163.9l-0.1,0l0,0.1L713.6,163.9z M720.5,179.8c0,0-0.1,0.1-0.1,0.1
		c0,0.1,0.1,0.2,0.1,0.3c0,0,0.1-0.1,0.1-0.1C720.6,179.9,720.6,179.8,720.5,179.8z"></path>
	<path class="st0" d="M284.3,94.3c0,1.8-0.1,3.6,0,5.5c0.1,2.2,0.3,4.3,0.4,6.4c0.1,2,0.2,4.1,0.2,6.1c0,2.6,0,5.2,0,7.8
		c0,0.2,0,0.4,0,0.7c-0.3,2.4-0.3,4.9-0.4,7.3c-0.1,2.5-0.1,5-0.2,7.4c-0.1,2.5-0.1,5.1-0.3,7.6c-0.3,3.1-0.6,6.2-0.6,9.3
		c0,2.6,0.1,5.2,0.2,7.8c0.2,3.5,0.2,6.9,0.3,10.4c0,0.3,0,0.6,0,0.8c0,0.4,0.3,0.7,0.7,0.8c0.5,0.1,1,0.1,1.5,0.1
		c2.3-0.1,4.6-0.1,7-0.3c3.6-0.3,7.2,0,10.8,0c1.5,0,3-0.1,4.5,0c2.5,0.1,5,0,7.5,0.1c1.6,0.1,3.1,0,4.6-0.3
		c1.1-0.2,2.3-0.5,3.4-0.5c0.9-0.1,1.9,0,2.8,0.2c1,0.1,2,0.2,3,0.1c1.2-0.2,2.4,0,3.6,0.1c0.4,0,0.7,0.3,1.1,0.4
		c0.5,0.2,0.7,0.5,0.7,1c0.1,1,0.2,2.1,0.3,3.1c0,0.3,0.1,0.7,0,1c-0.4,1.5-0.3,3.1-0.2,4.6c0.1,1.7,0.1,3.4-0.3,5.1
		c-0.1,0.6-0.1,1.2,0,1.8c0.4,1.8,0.5,3.6,0.3,5.4c-0.1,1.1,0,2.2,0.1,3.3c0.2,1.7-0.1,2.3-1.8,2.4c-3.1,0.2-6.1,0.8-9.3,0.3
		c-1-0.1-2.1,0-3.1,0c-3.9,0.1-7.8,0.6-11.8,0.4c-1.4-0.1-2.9,0.1-4.3,0.2c-1.7,0.2-3.4,0.1-5.1,0.1c-0.3,0-0.7-0.1-1,0
		c-3.5,0.6-7.1-0.1-10.6-0.1c-1,0-2.1-0.2-3.1-0.3c-1.6-0.1-3.2-0.3-4.8-0.3c-4.8,0-9.5,0-14.3,0c-1.8,0-3.5-0.1-5.3,0.3
		c-0.9,0.1-1.8,0-2.6,0c-0.7,0-1.3-0.1-2,0c-1.6,0.1-3.2-0.3-4.8-0.5c-0.5-0.1-0.8-0.4-0.9-0.8c-0.2-0.9-0.3-1.7-0.3-2.6
		c-0.1-1.8-0.1-3.6-0.1-5.5c0-1.2,0.1-2.4,0.1-3.6c0-2.9,0-5.7,0.1-8.6c0-1.4,0.2-2.9,0.2-4.3c0.1-3.2,0.1-6.4-0.2-9.6
		c0-0.4,0-0.8,0-1.2c-0.1-2.7-0.2-5.3-0.3-8c-0.1-2.3-0.1-4.5-0.1-6.8c0-3.3-0.3-6.5-0.1-9.8c0-0.8,0-1.7,0.2-2.5
		c0.6-2.3,0.3-4.5,0.1-6.8c-0.1-1.3-0.2-2.5-0.1-3.8c0.1-2.3,0-4.5,0-6.8c0-2.8,0.1-5.6,0.2-8.5c0-1,0.3-2.1,0.3-3.1
		c0-1.6-0.2-3.2-0.4-4.8c-0.1-0.9-0.2-1.8-0.3-2.6c-0.1-1.3-0.1-2.6-0.4-4c-0.1-0.4-0.2-0.8-0.1-1.1c0.3-1.6,0.3-3.2,0.4-4.8
		c0-0.2,0.1-0.4,0-0.7c-0.3-1.3,0-2.6,0.2-3.9c0.1-0.8,0.6-1.4,1.4-1.6c1.5-0.4,3-0.7,4.6-0.5c1.7,0.3,3.5,0.6,5.3,0.6
		c1.6,0,3.2,0,4.8,0c0.2,0,0.4,0,0.7,0c3.6,0.4,7.3,0,10.9-0.1c1.5-0.1,3,0,4.5,0c1.4,0.1,2.3,1.2,2.3,2.5c0,1.7,0,3.3-0.1,5
		C284.4,92.6,284.4,93.5,284.3,94.3C284.4,94.3,284.4,94.3,284.3,94.3z M295.6,180.4c-0.2-0.1-0.3-0.2-0.5-0.2
		c-0.1,0-0.3,0.1-0.4,0.2c-0.1,0.1,0.1,0.4,0.4,0.4c0.2,0,0.3-0.1,0.5-0.1C295.6,180.6,295.6,180.5,295.6,180.4z M301.7,198.1
		c0.3,0.3,0.5,0.3,0.8,0C302.2,197.8,302,197.9,301.7,198.1z M264.2,89.9c-0.1-0.1-0.1-0.2-0.2-0.3c-0.1,0.1-0.2,0.2-0.2,0.4
		c0,0.1,0.1,0.2,0.2,0.2C264.1,90.1,264.2,90,264.2,89.9z M271.3,134.1c0,0,0.1,0,0.1,0c0-0.1,0-0.2-0.1-0.2c0,0-0.1,0-0.1,0
		C271.3,134,271.3,134.1,271.3,134.1z M263,112.3L263,112.3L263,112.3L263,112.3z"></path>
	<path class="st0" d="M1340.4,197.4c-0.4,0.6-1.2,0.7-1.4,1.3c-0.1,0.2-0.5,0.3-0.8,0.3c-0.6,0.1-1.2,0.1-1.8,0.1
		c-1,0.1-2.1,0-3.1,0.2c-1.8,0.3-3.6,0.4-5.4,0.1c-0.1,0-0.2,0-0.4,0c-1.8,0.3-3.7,0-5.5,0c-1.2,0-2.4,0.2-3.7,0.2
		c-1.6,0-3.2-0.1-4.8-0.1c-2.3-0.1-4.6-0.2-7-0.3c-0.7,0-1.3,0-2-0.1c-0.3,0-0.6-0.2-0.9-0.3c0.1-2.4,0.1-4.7,0.3-7
		c0.1-1,0.3-1.9,0.4-2.9c0.3-1.4,0.4-2.8,0.4-4.2c0-1.2,0.1-2.4,0.2-3.6c0.1-1.6,0.1-3.1,0.1-4.7c-0.1-1.6,0.2-3.2,0.3-4.8
		c0.1-1.5,0.1-3.1,0.2-4.6c0.1-2.5,0.2-5,0.4-7.5c0.3-2.9,0.1-5.7,0.2-8.6c0-0.7-0.1-1.3-0.4-2c-0.6-1.4-1-2.7-1.1-4.2
		c0-0.7-0.4-1.4-0.7-2.1c-0.4-0.9-0.8-1.8-1.3-2.6c-0.9-1.7-1.8-3.3-2.7-5c-1.1-2-2.2-4-3.2-6c-0.5-0.9-0.9-1.9-1.5-2.7
		c-2.2-3.5-4-7.2-5.6-10.9c-0.5-1.1-1.1-2.1-1.6-3.1c-2.3-4.3-4.6-8.5-6.8-12.8c-1.6-3-3.1-6.1-4.9-9c-0.3-0.4-0.5-0.9-0.7-1.3
		c-0.8-1.6-1.5-3.3-2.7-4.8c-0.4-0.5-0.7-1-0.4-1.7c1.4-0.8,2.9-0.8,4.5-0.7c2.3,0.2,4.5,0.6,6.7,0.7c2.1,0.1,4.1,0.6,6.2,0.1
		c2.6,0.1,5.2-0.3,7.9-0.5c1.7-0.1,3.4-0.2,5.1-0.3c0.4,0,0.9-0.1,1.3-0.2c1.1-0.3,2.2-0.2,3.3,0.3c0.2,2.5,1.7,4.5,2.9,6.6
		c0.4,0.7,0.8,1.4,1.2,2.1c1,2.1,2.1,4.1,2.7,6.4c0.5,1.7,1.3,3.4,2,5.1c0.8,1.9,1.6,3.8,2.6,5.6c0.8,1.5,1.5,3,2.2,4.6
		c0.4,0.9,0.7,1.9,1.1,2.9c0.1,0.3,0.2,0.6,0.7,0.6c0.4-0.6,0.6-1.3,1-2c0.1-0.3,0.2-0.7,0.4-1c1.1-2,1.9-4.1,2.9-6.1
		c0.6-1.2,1.2-2.4,1.9-3.5c0.8-1.3,1.4-2.7,1.9-4.2c1.2-3.5,2.4-6.9,3.7-10.4c0.7-1.9,1.7-3.7,2.9-5.3c0.3-0.4,0.7-0.7,1.2-0.7
		c1.6-0.2,3.2-0.4,4.7-0.6c2.5-0.3,4.9-0.2,7.3,0.3c3.6,0.7,7.1,1.1,10.8,0.6c1-0.1,2.1-0.2,3.1,0.1c0.8,0.3,1.7,0.2,2.5,0.1
		c1-0.1,2-0.2,2.9-0.2c1.3,0.1,1.8,0.8,1.5,2.1c-0.1,0.3-0.2,0.6-0.3,0.8c-1.3,2.7-2.5,5.4-4,8c-1.8,3.1-3.3,6.2-4.9,9.4
		c-0.6,1.2-1.2,2.4-1.6,3.7c-1,2.7-2.4,5.2-3.7,7.8c-0.8,1.6-1.8,3.1-2.7,4.6c-0.1,0.2-0.2,0.3-0.2,0.5c-0.9,2.7-2.6,4.9-4.1,7.3
		c-0.6,1-1.4,1.8-2.2,2.7c-1.5,1.9-2.7,4.1-3.7,6.3c-0.7,1.6-1.5,3.2-2.3,4.8c-0.8,1.8-1.2,3.7-1.1,5.7c0.1,1.6-0.1,3.3-0.2,4.9
		c-0.1,1.5-0.2,2.9-0.3,4.4c-0.1,1.3-0.1,2.6-0.2,3.8c-0.1,2.4,0.1,4.8,0.4,7.1c0.2,1.4,0.4,2.9,0.5,4.4c0.1,0.5,0,1.1-0.1,1.6
		c-0.3,1.2-0.3,2.4-0.1,3.6c0.2,2,0.2,4,0,6c-0.1,1.3-0.1,2.6-0.1,3.8c0,3.2-0.4,6.5,0,9.7C1340.5,196.9,1340.4,197.1,1340.4,197.4z
		 M1338,139.6c0.6,0.1,1,0,1-0.7C1338.5,139.2,1338.2,139.4,1338,139.6z M1345.1,112.6c0,0,0.1,0,0.1,0c0,0,0-0.1,0-0.2
		c0,0-0.1,0-0.1,0C1345.1,112.5,1345.1,112.5,1345.1,112.6z M1286,102.4l-0.1-0.1L1286,102.4L1286,102.4z M1319.7,159.7
		c0.1,0,0.2-0.1,0.3-0.1c0,0-0.1-0.1-0.1-0.1c-0.1,0-0.2,0.1-0.3,0.1C1319.6,159.6,1319.7,159.7,1319.7,159.7z"></path>
	<path class="st0" d="M993.1,162.1C993.1,162.1,993.1,162.1,993.1,162.1c-0.1-0.1-0.1-0.2-0.2-0.3C993,161.9,993.1,162,993.1,162.1z"></path>
</g>
</svg>
